<svg xmlns="http://www.w3.org/2000/svg" xmlns:xlink="http://www.w3.org/1999/xlink" width="500" zoomAndPan="magnify" viewBox="0 0 375 374.999991" height="500" preserveAspectRatio="xMidYMid meet" version="1.0"><defs><g/></defs><rect x="-37.5" width="450" fill="#4d64d1" y="-37.499999" height="449.999989" fill-opacity="1"/><g fill="#ffffff" fill-opacity="1"><g transform="translate(104.055441, 169.499989)"><g><path d="M 16.28125 0 L 2.1875 0 L 2.1875 -19.640625 L 16.578125 -19.640625 C 19.140625 -19.640625 21.242188 -19.519531 22.890625 -19.28125 C 24.546875 -19.050781 25.820312 -18.6875 26.71875 -18.1875 C 27.613281 -17.695312 28.21875 -17.066406 28.53125 -16.296875 C 28.851562 -15.523438 29.015625 -14.609375 29.015625 -13.546875 C 28.992188 -12.703125 28.765625 -12.003906 28.328125 -11.453125 C 27.890625 -10.898438 27.378906 -10.488281 26.796875 -10.21875 C 26.222656 -9.945312 25.71875 -9.8125 25.28125 -9.8125 C 25.707031 -9.8125 26.207031 -9.726562 26.78125 -9.5625 C 27.363281 -9.394531 27.925781 -9.148438 28.46875 -8.828125 C 29.007812 -8.515625 29.457031 -8.128906 29.8125 -7.671875 C 30.175781 -7.210938 30.359375 -6.691406 30.359375 -6.109375 C 30.359375 -5.335938 30.269531 -4.632812 30.09375 -4 C 29.914062 -3.363281 29.554688 -2.796875 29.015625 -2.296875 C 28.484375 -1.804688 27.695312 -1.390625 26.65625 -1.046875 C 25.625 -0.703125 24.265625 -0.441406 22.578125 -0.265625 C 20.890625 -0.0859375 18.789062 0 16.28125 0 Z M 15.8125 -11.5 C 17.019531 -11.5 17.953125 -11.554688 18.609375 -11.671875 C 19.273438 -11.796875 19.734375 -11.976562 19.984375 -12.21875 C 20.242188 -12.457031 20.375 -12.765625 20.375 -13.140625 C 20.375 -13.523438 20.242188 -13.835938 19.984375 -14.078125 C 19.734375 -14.328125 19.273438 -14.507812 18.609375 -14.625 C 17.953125 -14.738281 17.019531 -14.796875 15.8125 -14.796875 L 10.4375 -14.796875 L 10.4375 -11.5 Z M 15.8125 -4.84375 C 17.050781 -4.84375 18.050781 -4.875 18.8125 -4.9375 C 19.582031 -5.007812 20.144531 -5.15625 20.5 -5.375 C 20.851562 -5.601562 21.03125 -5.972656 21.03125 -6.484375 C 21.03125 -7.003906 20.851562 -7.378906 20.5 -7.609375 C 20.144531 -7.835938 19.582031 -7.984375 18.8125 -8.046875 C 18.050781 -8.109375 17.050781 -8.140625 15.8125 -8.140625 L 10.4375 -8.140625 L 10.4375 -4.84375 Z M 15.8125 -4.84375 "/></g></g></g><g fill="#ffffff" fill-opacity="1"><g transform="translate(149.293171, 169.499989)"><g><path d="M 14.859375 0.421875 C 10.003906 0.421875 6.429688 -0.578125 4.140625 -2.578125 C 2.109375 -4.347656 1.09375 -6.757812 1.09375 -9.8125 C 1.09375 -12.863281 2.109375 -15.273438 4.140625 -17.046875 C 6.429688 -19.046875 10.003906 -20.046875 14.859375 -20.046875 C 19.710938 -20.046875 23.285156 -19.046875 25.578125 -17.046875 C 27.609375 -15.273438 28.625 -12.863281 28.625 -9.8125 C 28.625 -6.757812 27.609375 -4.347656 25.578125 -2.578125 C 23.285156 -0.578125 19.710938 0.421875 14.859375 0.421875 Z M 14.859375 -4.84375 C 16.847656 -4.84375 18.304688 -5.414062 19.234375 -6.5625 C 19.984375 -7.476562 20.359375 -8.5625 20.359375 -9.8125 C 20.359375 -11.070312 19.984375 -12.15625 19.234375 -13.0625 C 18.304688 -14.21875 16.847656 -14.796875 14.859375 -14.796875 C 12.867188 -14.796875 11.40625 -14.21875 10.46875 -13.0625 C 9.71875 -12.15625 9.34375 -11.070312 9.34375 -9.8125 C 9.34375 -8.5625 9.71875 -7.476562 10.46875 -6.5625 C 11.40625 -5.414062 12.867188 -4.84375 14.859375 -4.84375 Z M 14.859375 -4.84375 "/></g></g></g><g fill="#ffffff" fill-opacity="1"><g transform="translate(192.792636, 169.499989)"><g><path d="M 14.859375 0.421875 C 10.003906 0.421875 6.429688 -0.578125 4.140625 -2.578125 C 2.109375 -4.347656 1.09375 -6.757812 1.09375 -9.8125 C 1.09375 -12.863281 2.109375 -15.273438 4.140625 -17.046875 C 6.429688 -19.046875 10.003906 -20.046875 14.859375 -20.046875 C 19.710938 -20.046875 23.285156 -19.046875 25.578125 -17.046875 C 27.609375 -15.273438 28.625 -12.863281 28.625 -9.8125 C 28.625 -6.757812 27.609375 -4.347656 25.578125 -2.578125 C 23.285156 -0.578125 19.710938 0.421875 14.859375 0.421875 Z M 14.859375 -4.84375 C 16.847656 -4.84375 18.304688 -5.414062 19.234375 -6.5625 C 19.984375 -7.476562 20.359375 -8.5625 20.359375 -9.8125 C 20.359375 -11.070312 19.984375 -12.15625 19.234375 -13.0625 C 18.304688 -14.21875 16.847656 -14.796875 14.859375 -14.796875 C 12.867188 -14.796875 11.40625 -14.21875 10.46875 -13.0625 C 9.71875 -12.15625 9.34375 -11.070312 9.34375 -9.8125 C 9.34375 -8.5625 9.71875 -7.476562 10.46875 -6.5625 C 11.40625 -5.414062 12.867188 -4.84375 14.859375 -4.84375 Z M 14.859375 -4.84375 "/></g></g></g><g fill="#ffffff" fill-opacity="1"><g transform="translate(236.292095, 169.499989)"><g><path d="M 34.453125 0 L 23.75 0 L 15.3125 -6.578125 L 10.4375 -3.25 L 10.4375 0 L 2.1875 0 L 2.1875 -19.65625 L 10.4375 -19.65625 L 10.4375 -10.5625 L 23.671875 -19.65625 L 34.453125 -19.65625 L 20.375 -10.03125 Z M 34.453125 0 "/></g></g></g><g fill="#ffffff" fill-opacity="1"><g transform="translate(39.942164, 222.749985)"><g><path d="M 33 0 L 24.65625 0 L 22.796875 -3.21875 L 10.40625 -3.21875 L 8.5625 0 L 0.203125 0 L 12.78125 -19.640625 L 20.4375 -19.640625 Z M 20.015625 -8.078125 L 16.609375 -14.03125 L 13.1875 -8.078125 Z M 20.015625 -8.078125 "/></g></g></g><g fill="#ffffff" fill-opacity="1"><g transform="translate(86.931848, 222.749985)"><g><path d="M 14.859375 0.421875 C 10.003906 0.421875 6.429688 -0.578125 4.140625 -2.578125 C 2.109375 -4.335938 1.09375 -6.75 1.09375 -9.8125 C 1.09375 -12.863281 2.109375 -15.273438 4.140625 -17.046875 C 6.429688 -19.035156 10.003906 -20.03125 14.859375 -20.03125 C 17.703125 -20.03125 20.054688 -19.703125 21.921875 -19.046875 C 23.785156 -18.398438 25.234375 -17.507812 26.265625 -16.375 C 27.296875 -15.25 27.984375 -13.953125 28.328125 -12.484375 L 19.65625 -12.484375 C 18.78125 -14.015625 17.179688 -14.78125 14.859375 -14.78125 C 12.867188 -14.78125 11.40625 -14.203125 10.46875 -13.046875 C 9.71875 -12.140625 9.34375 -11.0625 9.34375 -9.8125 C 9.34375 -8.550781 9.71875 -7.46875 10.46875 -6.5625 C 11.40625 -5.40625 12.867188 -4.828125 14.859375 -4.828125 C 17.179688 -4.828125 18.78125 -5.597656 19.65625 -7.140625 L 28.328125 -7.140625 C 27.984375 -5.671875 27.296875 -4.367188 26.265625 -3.234375 C 25.234375 -2.097656 23.785156 -1.203125 21.921875 -0.546875 C 20.054688 0.0976562 17.703125 0.421875 14.859375 0.421875 Z M 14.859375 0.421875 "/></g></g></g><g fill="#ffffff" fill-opacity="1"><g transform="translate(130.130195, 222.749985)"><g><path d="M 16.765625 0 L 8.515625 0 L 8.515625 -14.796875 L 0.828125 -14.796875 L 0.828125 -19.65625 L 24.453125 -19.65625 L 24.453125 -14.796875 L 16.765625 -14.796875 Z M 16.765625 0 "/></g></g></g><g fill="#ffffff" fill-opacity="1"><g transform="translate(169.195024, 222.749985)"><g><path d="M 10.4375 0 L 2.1875 0 L 2.1875 -19.65625 L 10.4375 -19.65625 Z M 10.4375 0 "/></g></g></g><g fill="#ffffff" fill-opacity="1"><g transform="translate(195.612952, 222.749985)"><g><path d="M 18.875 0 L 11.21875 0 L 0.203125 -19.640625 L 8.5625 -19.640625 L 15.046875 -5.59375 L 21.53125 -19.640625 L 29.875 -19.640625 Z M 18.875 0 "/></g></g></g><g fill="#ffffff" fill-opacity="1"><g transform="translate(239.481976, 222.749985)"><g><path d="M 10.4375 0 L 2.1875 0 L 2.1875 -19.65625 L 10.4375 -19.65625 Z M 10.4375 0 "/></g></g></g><g fill="#ffffff" fill-opacity="1"><g transform="translate(265.899904, 222.749985)"><g><path d="M 16.765625 0 L 8.515625 0 L 8.515625 -14.796875 L 0.828125 -14.796875 L 0.828125 -19.65625 L 24.453125 -19.65625 L 24.453125 -14.796875 L 16.765625 -14.796875 Z M 16.765625 0 "/></g></g></g><g fill="#ffffff" fill-opacity="1"><g transform="translate(304.964744, 222.749985)"><g><path d="M 19.171875 0 L 10.921875 0 L 10.921875 -9.3125 L 0.203125 -19.65625 L 9.34375 -19.65625 L 15.046875 -13.78125 L 20.75 -19.65625 L 29.875 -19.65625 L 19.171875 -9.3125 Z M 19.171875 0 "/></g></g></g></svg>