<?xml version="1.0" encoding="UTF-8"?>
<svg xmlns="http://www.w3.org/2000/svg" xmlns:xlink="http://www.w3.org/1999/xlink" width="96px" height="96px" viewBox="0 0 96 96" version="1.1">
<g id="surface1">
<path style=" stroke:none;fill-rule:nonzero;fill:rgb(51.372549%,58.039216%,69.803922%);fill-opacity:1;" d="M 64.5 85.5 L 1.5 85.5 L 1.5 19.5 L 6 19.5 L 6 79.5 L 43.5 79.5 C 44.699219 79.472656 45.859375 79.941406 46.710938 80.789062 C 47.558594 81.640625 48.027344 82.800781 48 84 C 47.972656 82.800781 48.441406 81.640625 49.289062 80.789062 C 50.140625 79.941406 51.300781 79.472656 52.5 79.5 L 64.5 79.5 Z M 64.5 85.5 "/>
<path style=" stroke:none;fill-rule:nonzero;fill:rgb(51.372549%,58.039216%,69.803922%);fill-opacity:1;" d="M 94.5 19.5 L 94.5 85.5 L 76.5 85.5 L 76.5 79.5 L 90 79.5 L 90 19.5 Z M 94.5 19.5 "/>
<path style=" stroke:none;fill-rule:nonzero;fill:rgb(90.196078%,23.137255%,27.843137%);fill-opacity:1;" d="M 76.5 85.5 L 76.5 91.5 L 70.5 85.5 L 64.5 91.5 L 64.5 79.5 L 76.5 79.5 Z M 76.5 85.5 "/>
<path style=" stroke:none;fill-rule:nonzero;fill:rgb(0.392157%,65.882353%,30.588235%);fill-opacity:1;" d="M 84 46.5 L 84 52.5 L 54 52.5 L 64.5 42 L 70.5 48 L 78 40.5 Z M 84 46.5 "/>
<path style=" stroke:none;fill-rule:nonzero;fill:rgb(28.627451%,53.72549%,95.686275%);fill-opacity:1;" d="M 84 19.5 L 84 46.5 L 78 40.5 L 70.5 48 L 64.5 42 L 54 52.5 L 54 19.5 L 57.480469 19.5 C 59.234375 25.304688 65.398438 27.898438 65.398438 33.960938 C 65.398438 35.949219 67.011719 37.558594 69 37.558594 C 70.988281 37.558594 72.601562 35.949219 72.601562 33.960938 C 72.601562 27.898438 78.765625 25.304688 80.519531 19.5 Z M 84 19.5 "/>
<path style=" stroke:none;fill-rule:nonzero;fill:rgb(98.431373%,98.431373%,98.431373%);fill-opacity:1;" d="M 43.5 13.5 L 6 13.5 L 6 79.5 L 43.5 79.5 C 44.699219 79.472656 45.859375 79.941406 46.710938 80.789062 C 47.558594 81.640625 48.027344 82.800781 48 84 L 48 18 C 48.027344 16.800781 47.558594 15.640625 46.710938 14.789062 C 45.859375 13.941406 44.699219 13.472656 43.5 13.5 Z M 24 36 C 26.480469 36.007812 28.492188 38.019531 28.5 40.5 C 28.5 42.984375 26.484375 45 24 45 C 21.515625 45 19.5 42.984375 19.5 40.5 C 19.507812 38.019531 21.519531 36.007812 24 36 Z M 42 52.5 L 42 73.5 L 12 73.5 L 12 49.5 L 42 49.5 Z M 42 52.5 "/>
<path style=" stroke:none;fill-rule:nonzero;fill:rgb(98.431373%,98.431373%,98.431373%);fill-opacity:1;" d="M 52.5 79.5 C 51.300781 79.472656 50.140625 79.941406 49.289062 80.789062 C 48.441406 81.640625 47.972656 82.800781 48 84 L 48 18 C 47.972656 16.800781 48.441406 15.640625 49.289062 14.789062 C 50.140625 13.941406 51.300781 13.472656 52.5 13.5 L 57.328125 13.5 C 57.113281 14.414062 57.003906 15.351562 57 16.289062 C 56.988281 17.378906 57.152344 18.460938 57.480469 19.5 L 54 19.5 L 54 52.5 L 84 52.5 L 84 19.5 L 80.519531 19.5 C 80.847656 18.460938 81.011719 17.378906 81 16.289062 C 80.996094 15.351562 80.886719 14.414062 80.671875 13.5 L 90 13.5 L 90 79.5 Z M 52.5 79.5 "/>
<path style=" stroke:none;fill-rule:nonzero;fill:rgb(36.078431%,41.176471%,47.45098%);fill-opacity:1;" d="M 48 84 C 48.027344 82.800781 47.558594 81.640625 46.710938 80.789062 C 45.859375 79.941406 44.699219 79.472656 43.5 79.5 L 6 79.5 L 6 19.5 L 4.5 19.5 L 4.5 82.5 L 43.339844 82.5 C 45.328125 82.328125 47.164062 83.585938 47.726562 85.5 L 48 85.5 Z M 48 84 "/>
<path style=" stroke:none;fill-rule:nonzero;fill:rgb(36.078431%,41.176471%,47.45098%);fill-opacity:1;" d="M 52.5 79.5 C 51.300781 79.472656 50.140625 79.941406 49.289062 80.789062 C 48.441406 81.640625 47.972656 82.800781 48 84 L 48 85.5 L 48.273438 85.5 C 48.835938 83.585938 50.671875 82.328125 52.660156 82.5 L 64.5 82.5 L 64.5 79.5 Z M 52.5 79.5 "/>
<path style=" stroke:none;fill-rule:nonzero;fill:rgb(36.078431%,41.176471%,47.45098%);fill-opacity:1;" d="M 91.5 82.5 L 91.5 19.5 L 90 19.5 L 90 79.5 L 76.5 79.5 L 76.5 82.5 Z M 91.5 82.5 "/>
<path style=" stroke:none;fill-rule:nonzero;fill:rgb(58.823529%,15.294118%,18.039216%);fill-opacity:1;" d="M 73.5 16.5 C 73.5 18.984375 71.484375 21 69 21 C 66.515625 21 64.5 18.984375 64.5 16.5 C 64.5 14.015625 66.515625 12 69 12 C 71.484375 12 73.5 14.015625 73.5 16.5 Z M 73.5 16.5 "/>
<path style=" stroke:none;fill-rule:nonzero;fill:rgb(90.196078%,23.137255%,27.843137%);fill-opacity:1;" d="M 57.328125 13.5 C 58.722656 8.195312 63.515625 4.5 69 4.5 C 74.484375 4.5 79.277344 8.195312 80.671875 13.5 C 80.886719 14.414062 80.996094 15.351562 81 16.289062 C 81.011719 17.378906 80.847656 18.460938 80.519531 19.5 C 78.765625 25.304688 72.601562 27.898438 72.601562 33.960938 C 72.601562 35.949219 70.988281 37.558594 69 37.558594 C 67.011719 37.558594 65.398438 35.949219 65.398438 33.960938 C 65.398438 27.898438 59.234375 25.304688 57.480469 19.5 C 57.152344 18.460938 56.988281 17.378906 57 16.289062 C 57.003906 15.351562 57.113281 14.414062 57.328125 13.5 Z M 73.5 16.5 C 73.5 14.015625 71.484375 12 69 12 C 66.515625 12 64.5 14.015625 64.5 16.5 C 64.5 18.984375 66.515625 21 69 21 C 71.484375 21 73.5 18.984375 73.5 16.5 Z M 73.5 16.5 "/>
<path style=" stroke:none;fill-rule:nonzero;fill:rgb(3.137255%,30.588235%,91.764706%);fill-opacity:1;" d="M 62.398438 36.960938 C 62.453125 38.8125 63.902344 40.324219 65.753906 40.453125 C 67.605469 40.578125 69.25 39.277344 69.550781 37.445312 C 69.367188 37.476562 69.183594 37.496094 69 37.5 C 67.027344 37.515625 65.417969 35.933594 65.398438 33.960938 C 65.398438 27.898438 59.234375 25.304688 57.480469 19.5 L 54.015625 19.5 C 54.019531 20.515625 54.175781 21.527344 54.480469 22.5 C 56.234375 28.304688 62.398438 30.898438 62.398438 36.960938 Z M 62.398438 36.960938 "/>
<path style=" stroke:none;fill-rule:nonzero;fill:rgb(70.196078%,18.039216%,21.568627%);fill-opacity:1;" d="M 69 10.5 C 65.6875 10.5 63 13.1875 63 16.5 C 63 19.8125 65.6875 22.5 69 22.5 C 72.3125 22.5 75 19.8125 75 16.5 C 75 13.1875 72.3125 10.5 69 10.5 Z M 69 21 C 66.515625 21 64.5 18.984375 64.5 16.5 C 64.5 14.015625 66.515625 12 69 12 C 71.484375 12 73.5 14.015625 73.5 16.5 C 73.5 18.984375 71.484375 21 69 21 Z M 69 21 "/>
<path style=" stroke:none;fill-rule:nonzero;fill:rgb(90.980392%,93.72549%,96.078431%);fill-opacity:1;" d="M 54 55.5 L 54 13.5 L 52.5 13.5 C 51.300781 13.472656 50.140625 13.941406 49.289062 14.789062 C 48.441406 15.640625 47.972656 16.800781 48 18 L 48 84 C 47.972656 82.800781 48.441406 81.640625 49.289062 80.789062 C 50.140625 79.941406 51.300781 79.472656 52.5 79.5 L 90 79.5 L 90 73.5 L 72 73.5 C 62.058594 73.5 54 65.441406 54 55.5 Z M 54 55.5 "/>
<path style=" stroke:none;fill-rule:nonzero;fill:rgb(28.627451%,53.72549%,95.686275%);fill-opacity:1;" d="M 42 52.5 L 42 61.5 L 37.5 57 Z M 42 52.5 "/>
<path style=" stroke:none;fill-rule:nonzero;fill:rgb(0.392157%,65.882353%,30.588235%);fill-opacity:1;" d="M 19.5 66 L 12 73.5 L 12 58.5 Z M 19.5 66 "/>
<path style=" stroke:none;fill-rule:nonzero;fill:rgb(28.627451%,53.72549%,95.686275%);fill-opacity:1;" d="M 42 73.5 L 21 73.5 L 31.5 63 Z M 42 73.5 "/>
<path style=" stroke:none;fill-rule:nonzero;fill:rgb(98.431373%,79.607843%,0%);fill-opacity:1;" d="M 42 49.5 L 42 52.5 L 37.5 57 L 42 61.5 L 42 73.5 L 31.5 63 L 21 73.5 L 12 73.5 L 19.5 66 L 12 58.5 L 12 49.5 L 24 61.5 L 36 49.5 Z M 42 49.5 "/>
<path style=" stroke:none;fill-rule:nonzero;fill:rgb(0.392157%,65.882353%,30.588235%);fill-opacity:1;" d="M 24 61.5 L 12 49.5 L 36 49.5 Z M 24 61.5 "/>
<path style=" stroke:none;fill-rule:nonzero;fill:rgb(90.980392%,93.72549%,96.078431%);fill-opacity:1;" d="M 30 73.5 L 12 73.5 L 12 13.5 L 6 13.5 L 6 79.5 L 43.5 79.5 C 44.699219 79.472656 45.859375 79.941406 46.710938 80.789062 C 47.558594 81.640625 48.027344 82.800781 48 84 L 48 73.5 Z M 30 73.5 "/>
<path style=" stroke:none;fill-rule:nonzero;fill:rgb(0.392157%,56.862745%,26.666667%);fill-opacity:1;" d="M 12.316406 58.816406 L 12 58.5 L 12 73.5 L 17.273438 68.226562 C 14.707031 65.664062 12.980469 62.382812 12.316406 58.816406 Z M 12.316406 58.816406 "/>
<path style=" stroke:none;fill-rule:nonzero;fill:rgb(3.137255%,30.588235%,91.764706%);fill-opacity:1;" d="M 21 73.5 L 30 73.5 C 27.449219 73.5 24.925781 72.953125 22.601562 71.898438 Z M 21 73.5 "/>
<path style=" stroke:none;fill-rule:nonzero;fill:rgb(98.039216%,67.058824%,10.588235%);fill-opacity:1;" d="M 12 55.5 L 12 58.5 L 12.316406 58.816406 C 12.109375 57.722656 12.003906 56.613281 12 55.5 Z M 12 55.5 "/>
<path style=" stroke:none;fill-rule:nonzero;fill:rgb(98.039216%,67.058824%,10.588235%);fill-opacity:1;" d="M 17.273438 68.226562 L 12 73.5 L 21 73.5 L 22.601562 71.898438 C 20.621094 71.007812 18.8125 69.761719 17.273438 68.226562 Z M 17.273438 68.226562 "/>
<path style=" stroke:none;fill-rule:nonzero;fill:rgb(51.372549%,58.039216%,69.803922%);fill-opacity:1;" d="M 16.5 18.75 L 43.5 18.75 L 43.5 20.25 L 16.5 20.25 Z M 16.5 18.75 "/>
<path style=" stroke:none;fill-rule:nonzero;fill:rgb(51.372549%,58.039216%,69.803922%);fill-opacity:1;" d="M 10.5 18.75 L 13.5 18.75 L 13.5 20.25 L 10.5 20.25 Z M 10.5 18.75 "/>
<path style=" stroke:none;fill-rule:nonzero;fill:rgb(51.372549%,58.039216%,69.803922%);fill-opacity:1;" d="M 16.5 30.75 L 43.5 30.75 L 43.5 32.25 L 16.5 32.25 Z M 16.5 30.75 "/>
<path style=" stroke:none;fill-rule:nonzero;fill:rgb(51.372549%,58.039216%,69.803922%);fill-opacity:1;" d="M 10.5 30.75 L 13.5 30.75 L 13.5 32.25 L 10.5 32.25 Z M 10.5 30.75 "/>
<path style=" stroke:none;fill-rule:nonzero;fill:rgb(51.372549%,58.039216%,69.803922%);fill-opacity:1;" d="M 10.5 24.75 L 43.5 24.75 L 43.5 26.25 L 10.5 26.25 Z M 10.5 24.75 "/>
<path style=" stroke:none;fill-rule:nonzero;fill:rgb(51.372549%,58.039216%,69.803922%);fill-opacity:1;" d="M 10.5 36.75 L 43.5 36.75 L 43.5 38.25 L 10.5 38.25 Z M 10.5 36.75 "/>
<path style=" stroke:none;fill-rule:nonzero;fill:rgb(70.196078%,18.039216%,21.568627%);fill-opacity:1;" d="M 20.65625 37.5 C 21.898438 36.117188 23.867188 35.640625 25.605469 36.308594 C 27.347656 36.972656 28.496094 38.636719 28.5 40.5 C 28.5 42.984375 26.484375 45 24 45 C 21.515625 45 19.5 42.984375 19.5 40.5 C 19.496094 39.390625 19.910156 38.320312 20.65625 37.5 Z M 20.65625 37.5 "/>
<path style=" stroke:none;fill-rule:nonzero;fill:rgb(90.196078%,23.137255%,27.843137%);fill-opacity:1;" d="M 27 40.5 C 27 42.15625 25.65625 43.5 24 43.5 C 22.34375 43.5 21 42.15625 21 40.5 C 21 38.84375 22.34375 37.5 24 37.5 C 25.65625 37.5 27 38.84375 27 40.5 Z M 27 40.5 "/>
<path style=" stroke:none;fill-rule:nonzero;fill:rgb(65.882353%,71.764706%,83.137255%);fill-opacity:1;" d="M 23.25 44.925781 L 23.25 55.5 L 24.75 55.5 L 24.75 44.925781 C 24.253906 45.023438 23.746094 45.023438 23.25 44.925781 Z M 23.25 44.925781 "/>
<path style=" stroke:none;fill-rule:nonzero;fill:rgb(70.196078%,18.039216%,21.568627%);fill-opacity:1;" d="M 76.5 82.5 L 76.5 79.5 L 64.5 79.5 L 64.5 91.5 L 70.5 85.5 L 70.5 82.5 Z M 76.5 82.5 "/>
<path style=" stroke:none;fill-rule:nonzero;fill:rgb(51.372549%,58.039216%,69.803922%);fill-opacity:1;" d="M 58.5 60.75 L 85.5 60.75 L 85.5 62.25 L 58.5 62.25 Z M 58.5 60.75 "/>
<path style=" stroke:none;fill-rule:nonzero;fill:rgb(51.372549%,58.039216%,69.803922%);fill-opacity:1;" d="M 52.5 60.75 L 55.5 60.75 L 55.5 62.25 L 52.5 62.25 Z M 52.5 60.75 "/>
<path style=" stroke:none;fill-rule:nonzero;fill:rgb(51.372549%,58.039216%,69.803922%);fill-opacity:1;" d="M 58.5 72.75 L 85.5 72.75 L 85.5 74.25 L 58.5 74.25 Z M 58.5 72.75 "/>
<path style=" stroke:none;fill-rule:nonzero;fill:rgb(51.372549%,58.039216%,69.803922%);fill-opacity:1;" d="M 52.5 72.75 L 55.5 72.75 L 55.5 74.25 L 52.5 74.25 Z M 52.5 72.75 "/>
<path style=" stroke:none;fill-rule:nonzero;fill:rgb(51.372549%,58.039216%,69.803922%);fill-opacity:1;" d="M 52.5 66.75 L 85.5 66.75 L 85.5 68.25 L 52.5 68.25 Z M 52.5 66.75 "/>
</g>
</svg>
