<?xml version="1.0" encoding="UTF-8"?>
<svg xmlns="http://www.w3.org/2000/svg" xmlns:xlink="http://www.w3.org/1999/xlink" width="152px" height="152px" viewBox="0 0 152 152" version="1.1">
<g id="surface1">
<path style=" stroke:none;fill-rule:nonzero;fill:rgb(51.372549%,58.039216%,69.803922%);fill-opacity:1;" d="M 102.125 135.375 L 2.375 135.375 L 2.375 30.875 L 9.5 30.875 L 9.5 125.875 L 68.875 125.875 C 70.777344 125.835938 72.613281 126.570312 73.957031 127.917969 C 75.304688 129.261719 76.039062 131.097656 76 133 C 75.960938 131.097656 76.695312 129.261719 78.042969 127.917969 C 79.386719 126.570312 81.222656 125.835938 83.125 125.875 L 102.125 125.875 Z M 102.125 135.375 "/>
<path style=" stroke:none;fill-rule:nonzero;fill:rgb(51.372549%,58.039216%,69.803922%);fill-opacity:1;" d="M 149.625 30.875 L 149.625 135.375 L 121.125 135.375 L 121.125 125.875 L 142.5 125.875 L 142.5 30.875 Z M 149.625 30.875 "/>
<path style=" stroke:none;fill-rule:nonzero;fill:rgb(90.196078%,23.137255%,27.843137%);fill-opacity:1;" d="M 121.125 135.375 L 121.125 144.875 L 111.625 135.375 L 102.125 144.875 L 102.125 125.875 L 121.125 125.875 Z M 121.125 135.375 "/>
<path style=" stroke:none;fill-rule:nonzero;fill:rgb(0.392157%,65.882353%,30.588235%);fill-opacity:1;" d="M 133 73.625 L 133 83.125 L 85.5 83.125 L 102.125 66.5 L 111.625 76 L 123.5 64.125 Z M 133 73.625 "/>
<path style=" stroke:none;fill-rule:nonzero;fill:rgb(28.627451%,53.72549%,95.686275%);fill-opacity:1;" d="M 133 30.875 L 133 73.625 L 123.5 64.125 L 111.625 76 L 102.125 66.5 L 85.5 83.125 L 85.5 30.875 L 91.011719 30.875 C 93.789062 40.066406 103.550781 44.175781 103.550781 53.769531 C 103.550781 56.917969 106.101562 59.46875 109.25 59.46875 C 112.398438 59.46875 114.949219 56.917969 114.949219 53.769531 C 114.949219 44.175781 124.710938 40.066406 127.488281 30.875 Z M 133 30.875 "/>
<path style=" stroke:none;fill-rule:nonzero;fill:rgb(98.431373%,98.431373%,98.431373%);fill-opacity:1;" d="M 68.875 21.375 L 9.5 21.375 L 9.5 125.875 L 68.875 125.875 C 70.777344 125.835938 72.613281 126.570312 73.957031 127.917969 C 75.304688 129.261719 76.039062 131.097656 76 133 L 76 28.5 C 76.039062 26.597656 75.304688 24.761719 73.957031 23.417969 C 72.613281 22.070312 70.777344 21.335938 68.875 21.375 Z M 38 57 C 41.929688 57.015625 45.109375 60.195312 45.125 64.125 C 45.125 68.058594 41.933594 71.25 38 71.25 C 34.066406 71.25 30.875 68.058594 30.875 64.125 C 30.890625 60.195312 34.070312 57.015625 38 57 Z M 66.5 83.125 L 66.5 116.375 L 19 116.375 L 19 78.375 L 66.5 78.375 Z M 66.5 83.125 "/>
<path style=" stroke:none;fill-rule:nonzero;fill:rgb(98.431373%,98.431373%,98.431373%);fill-opacity:1;" d="M 83.125 125.875 C 81.222656 125.835938 79.386719 126.570312 78.042969 127.917969 C 76.695312 129.261719 75.960938 131.097656 76 133 L 76 28.5 C 75.960938 26.597656 76.695312 24.761719 78.042969 23.417969 C 79.386719 22.070312 81.222656 21.335938 83.125 21.375 L 90.773438 21.375 C 90.429688 22.824219 90.253906 24.304688 90.25 25.792969 C 90.234375 27.515625 90.488281 29.230469 91.011719 30.875 L 85.5 30.875 L 85.5 83.125 L 133 83.125 L 133 30.875 L 127.488281 30.875 C 128.011719 29.230469 128.265625 27.515625 128.25 25.792969 C 128.246094 24.304688 128.070312 22.824219 127.726562 21.375 L 142.5 21.375 L 142.5 125.875 Z M 83.125 125.875 "/>
<path style=" stroke:none;fill-rule:nonzero;fill:rgb(36.078431%,41.176471%,47.45098%);fill-opacity:1;" d="M 76 133 C 76.039062 131.097656 75.304688 129.261719 73.957031 127.917969 C 72.613281 126.570312 70.777344 125.835938 68.875 125.875 L 9.5 125.875 L 9.5 30.875 L 7.125 30.875 L 7.125 130.625 L 68.621094 130.625 C 71.769531 130.355469 74.675781 132.339844 75.566406 135.375 L 76 135.375 Z M 76 133 "/>
<path style=" stroke:none;fill-rule:nonzero;fill:rgb(36.078431%,41.176471%,47.45098%);fill-opacity:1;" d="M 83.125 125.875 C 81.222656 125.835938 79.386719 126.570312 78.042969 127.917969 C 76.695312 129.261719 75.960938 131.097656 76 133 L 76 135.375 L 76.433594 135.375 C 77.324219 132.339844 80.230469 130.355469 83.378906 130.625 L 102.125 130.625 L 102.125 125.875 Z M 83.125 125.875 "/>
<path style=" stroke:none;fill-rule:nonzero;fill:rgb(36.078431%,41.176471%,47.45098%);fill-opacity:1;" d="M 144.875 130.625 L 144.875 30.875 L 142.5 30.875 L 142.5 125.875 L 121.125 125.875 L 121.125 130.625 Z M 144.875 130.625 "/>
<path style=" stroke:none;fill-rule:nonzero;fill:rgb(58.823529%,15.294118%,18.039216%);fill-opacity:1;" d="M 116.375 26.125 C 116.375 30.058594 113.183594 33.25 109.25 33.25 C 105.316406 33.25 102.125 30.058594 102.125 26.125 C 102.125 22.191406 105.316406 19 109.25 19 C 113.183594 19 116.375 22.191406 116.375 26.125 Z M 116.375 26.125 "/>
<path style=" stroke:none;fill-rule:nonzero;fill:rgb(90.196078%,23.137255%,27.843137%);fill-opacity:1;" d="M 90.773438 21.375 C 92.976562 12.976562 100.570312 7.125 109.25 7.125 C 117.929688 7.125 125.523438 12.976562 127.726562 21.375 C 128.070312 22.824219 128.246094 24.304688 128.25 25.792969 C 128.265625 27.515625 128.011719 29.230469 127.488281 30.875 C 124.710938 40.066406 114.949219 44.175781 114.949219 53.769531 C 114.949219 56.917969 112.398438 59.46875 109.25 59.46875 C 106.101562 59.46875 103.550781 56.917969 103.550781 53.769531 C 103.550781 44.175781 93.789062 40.066406 91.011719 30.875 C 90.488281 29.230469 90.234375 27.515625 90.25 25.792969 C 90.253906 24.304688 90.429688 22.824219 90.773438 21.375 Z M 116.375 26.125 C 116.375 22.191406 113.183594 19 109.25 19 C 105.316406 19 102.125 22.191406 102.125 26.125 C 102.125 30.058594 105.316406 33.25 109.25 33.25 C 113.183594 33.25 116.375 30.058594 116.375 26.125 Z M 116.375 26.125 "/>
<path style=" stroke:none;fill-rule:nonzero;fill:rgb(3.137255%,30.588235%,91.764706%);fill-opacity:1;" d="M 98.800781 58.519531 C 98.882812 61.457031 101.179688 63.847656 104.109375 64.046875 C 107.042969 64.246094 109.644531 62.1875 110.121094 59.289062 C 109.832031 59.339844 109.542969 59.367188 109.25 59.375 C 106.128906 59.402344 103.574219 56.890625 103.550781 53.769531 C 103.550781 44.175781 93.789062 40.066406 91.011719 30.875 L 85.523438 30.875 C 85.53125 32.484375 85.78125 34.085938 86.261719 35.625 C 89.039062 44.816406 98.800781 48.925781 98.800781 58.519531 Z M 98.800781 58.519531 "/>
<path style=" stroke:none;fill-rule:nonzero;fill:rgb(70.196078%,18.039216%,21.568627%);fill-opacity:1;" d="M 109.25 16.625 C 104.003906 16.625 99.75 20.878906 99.75 26.125 C 99.75 31.371094 104.003906 35.625 109.25 35.625 C 114.496094 35.625 118.75 31.371094 118.75 26.125 C 118.75 20.878906 114.496094 16.625 109.25 16.625 Z M 109.25 33.25 C 105.316406 33.25 102.125 30.058594 102.125 26.125 C 102.125 22.191406 105.316406 19 109.25 19 C 113.183594 19 116.375 22.191406 116.375 26.125 C 116.375 30.058594 113.183594 33.25 109.25 33.25 Z M 109.25 33.25 "/>
<path style=" stroke:none;fill-rule:nonzero;fill:rgb(90.980392%,93.72549%,96.078431%);fill-opacity:1;" d="M 85.5 87.875 L 85.5 21.375 L 83.125 21.375 C 81.222656 21.335938 79.386719 22.070312 78.042969 23.417969 C 76.695312 24.761719 75.960938 26.597656 76 28.5 L 76 133 C 75.960938 131.097656 76.695312 129.261719 78.042969 127.917969 C 79.386719 126.570312 81.222656 125.835938 83.125 125.875 L 142.5 125.875 L 142.5 116.375 L 114 116.375 C 98.261719 116.375 85.5 103.613281 85.5 87.875 Z M 85.5 87.875 "/>
<path style=" stroke:none;fill-rule:nonzero;fill:rgb(28.627451%,53.72549%,95.686275%);fill-opacity:1;" d="M 66.5 83.125 L 66.5 97.375 L 59.375 90.25 Z M 66.5 83.125 "/>
<path style=" stroke:none;fill-rule:nonzero;fill:rgb(0.392157%,65.882353%,30.588235%);fill-opacity:1;" d="M 30.875 104.5 L 19 116.375 L 19 92.625 Z M 30.875 104.5 "/>
<path style=" stroke:none;fill-rule:nonzero;fill:rgb(28.627451%,53.72549%,95.686275%);fill-opacity:1;" d="M 66.5 116.375 L 33.25 116.375 L 49.875 99.75 Z M 66.5 116.375 "/>
<path style=" stroke:none;fill-rule:nonzero;fill:rgb(98.431373%,79.607843%,0%);fill-opacity:1;" d="M 66.5 78.375 L 66.5 83.125 L 59.375 90.25 L 66.5 97.375 L 66.5 116.375 L 49.875 99.75 L 33.25 116.375 L 19 116.375 L 30.875 104.5 L 19 92.625 L 19 78.375 L 38 97.375 L 57 78.375 Z M 66.5 78.375 "/>
<path style=" stroke:none;fill-rule:nonzero;fill:rgb(0.392157%,65.882353%,30.588235%);fill-opacity:1;" d="M 38 97.375 L 19 78.375 L 57 78.375 Z M 38 97.375 "/>
<path style=" stroke:none;fill-rule:nonzero;fill:rgb(90.980392%,93.72549%,96.078431%);fill-opacity:1;" d="M 47.5 116.375 L 19 116.375 L 19 21.375 L 9.5 21.375 L 9.5 125.875 L 68.875 125.875 C 70.777344 125.835938 72.613281 126.570312 73.957031 127.917969 C 75.304688 129.261719 76.039062 131.097656 76 133 L 76 116.375 Z M 47.5 116.375 "/>
<path style=" stroke:none;fill-rule:nonzero;fill:rgb(0.392157%,56.862745%,26.666667%);fill-opacity:1;" d="M 19.503906 93.128906 L 19 92.625 L 19 116.375 L 27.347656 108.027344 C 23.289062 103.96875 20.554688 98.773438 19.503906 93.128906 Z M 19.503906 93.128906 "/>
<path style=" stroke:none;fill-rule:nonzero;fill:rgb(3.137255%,30.588235%,91.764706%);fill-opacity:1;" d="M 33.25 116.375 L 47.5 116.375 C 43.460938 116.375 39.46875 115.507812 35.789062 113.835938 Z M 33.25 116.375 "/>
<path style=" stroke:none;fill-rule:nonzero;fill:rgb(98.039216%,67.058824%,10.588235%);fill-opacity:1;" d="M 19 87.875 L 19 92.625 L 19.503906 93.128906 C 19.175781 91.398438 19.003906 89.636719 19 87.875 Z M 19 87.875 "/>
<path style=" stroke:none;fill-rule:nonzero;fill:rgb(98.039216%,67.058824%,10.588235%);fill-opacity:1;" d="M 27.347656 108.027344 L 19 116.375 L 33.25 116.375 L 35.789062 113.835938 C 32.648438 112.425781 29.785156 110.457031 27.347656 108.027344 Z M 27.347656 108.027344 "/>
<path style=" stroke:none;fill-rule:nonzero;fill:rgb(51.372549%,58.039216%,69.803922%);fill-opacity:1;" d="M 26.125 29.6875 L 68.875 29.6875 L 68.875 32.0625 L 26.125 32.0625 Z M 26.125 29.6875 "/>
<path style=" stroke:none;fill-rule:nonzero;fill:rgb(51.372549%,58.039216%,69.803922%);fill-opacity:1;" d="M 16.625 29.6875 L 21.375 29.6875 L 21.375 32.0625 L 16.625 32.0625 Z M 16.625 29.6875 "/>
<path style=" stroke:none;fill-rule:nonzero;fill:rgb(51.372549%,58.039216%,69.803922%);fill-opacity:1;" d="M 26.125 48.6875 L 68.875 48.6875 L 68.875 51.0625 L 26.125 51.0625 Z M 26.125 48.6875 "/>
<path style=" stroke:none;fill-rule:nonzero;fill:rgb(51.372549%,58.039216%,69.803922%);fill-opacity:1;" d="M 16.625 48.6875 L 21.375 48.6875 L 21.375 51.0625 L 16.625 51.0625 Z M 16.625 48.6875 "/>
<path style=" stroke:none;fill-rule:nonzero;fill:rgb(51.372549%,58.039216%,69.803922%);fill-opacity:1;" d="M 16.625 39.1875 L 68.875 39.1875 L 68.875 41.5625 L 16.625 41.5625 Z M 16.625 39.1875 "/>
<path style=" stroke:none;fill-rule:nonzero;fill:rgb(51.372549%,58.039216%,69.803922%);fill-opacity:1;" d="M 16.625 58.1875 L 68.875 58.1875 L 68.875 60.5625 L 16.625 60.5625 Z M 16.625 58.1875 "/>
<path style=" stroke:none;fill-rule:nonzero;fill:rgb(70.196078%,18.039216%,21.568627%);fill-opacity:1;" d="M 32.703125 59.375 C 34.675781 57.183594 37.792969 56.433594 40.546875 57.484375 C 43.296875 58.539062 45.117188 61.179688 45.125 64.125 C 45.125 68.058594 41.933594 71.25 38 71.25 C 34.066406 71.25 30.875 68.058594 30.875 64.125 C 30.871094 62.367188 31.523438 60.675781 32.703125 59.375 Z M 32.703125 59.375 "/>
<path style=" stroke:none;fill-rule:nonzero;fill:rgb(90.196078%,23.137255%,27.843137%);fill-opacity:1;" d="M 42.75 64.125 C 42.75 66.75 40.625 68.875 38 68.875 C 35.375 68.875 33.25 66.75 33.25 64.125 C 33.25 61.5 35.375 59.375 38 59.375 C 40.625 59.375 42.75 61.5 42.75 64.125 Z M 42.75 64.125 "/>
<path style=" stroke:none;fill-rule:nonzero;fill:rgb(65.882353%,71.764706%,83.137255%);fill-opacity:1;" d="M 36.8125 71.132812 L 36.8125 87.875 L 39.1875 87.875 L 39.1875 71.132812 C 38.402344 71.289062 37.597656 71.289062 36.8125 71.132812 Z M 36.8125 71.132812 "/>
<path style=" stroke:none;fill-rule:nonzero;fill:rgb(70.196078%,18.039216%,21.568627%);fill-opacity:1;" d="M 121.125 130.625 L 121.125 125.875 L 102.125 125.875 L 102.125 144.875 L 111.625 135.375 L 111.625 130.625 Z M 121.125 130.625 "/>
<path style=" stroke:none;fill-rule:nonzero;fill:rgb(51.372549%,58.039216%,69.803922%);fill-opacity:1;" d="M 92.625 96.1875 L 135.375 96.1875 L 135.375 98.5625 L 92.625 98.5625 Z M 92.625 96.1875 "/>
<path style=" stroke:none;fill-rule:nonzero;fill:rgb(51.372549%,58.039216%,69.803922%);fill-opacity:1;" d="M 83.125 96.1875 L 87.875 96.1875 L 87.875 98.5625 L 83.125 98.5625 Z M 83.125 96.1875 "/>
<path style=" stroke:none;fill-rule:nonzero;fill:rgb(51.372549%,58.039216%,69.803922%);fill-opacity:1;" d="M 92.625 115.1875 L 135.375 115.1875 L 135.375 117.5625 L 92.625 117.5625 Z M 92.625 115.1875 "/>
<path style=" stroke:none;fill-rule:nonzero;fill:rgb(51.372549%,58.039216%,69.803922%);fill-opacity:1;" d="M 83.125 115.1875 L 87.875 115.1875 L 87.875 117.5625 L 83.125 117.5625 Z M 83.125 115.1875 "/>
<path style=" stroke:none;fill-rule:nonzero;fill:rgb(51.372549%,58.039216%,69.803922%);fill-opacity:1;" d="M 83.125 105.6875 L 135.375 105.6875 L 135.375 108.0625 L 83.125 108.0625 Z M 83.125 105.6875 "/>
</g>
</svg>
