<?xml version="1.0" encoding="UTF-8"?>
<svg xmlns="http://www.w3.org/2000/svg" xmlns:xlink="http://www.w3.org/1999/xlink" width="144px" height="144px" viewBox="0 0 144 144" version="1.1">
<g id="surface1">
<path style=" stroke:none;fill-rule:nonzero;fill:rgb(51.372549%,58.039216%,69.803922%);fill-opacity:1;" d="M 96.75 128.25 L 2.25 128.25 L 2.25 29.25 L 9 29.25 L 9 119.25 L 65.25 119.25 C 67.050781 119.210938 68.792969 119.910156 70.066406 121.183594 C 71.339844 122.457031 72.039062 124.199219 72 126 C 71.960938 124.199219 72.660156 122.457031 73.933594 121.183594 C 75.207031 119.910156 76.949219 119.210938 78.75 119.25 L 96.75 119.25 Z M 96.75 128.25 "/>
<path style=" stroke:none;fill-rule:nonzero;fill:rgb(51.372549%,58.039216%,69.803922%);fill-opacity:1;" d="M 141.75 29.25 L 141.75 128.25 L 114.75 128.25 L 114.75 119.25 L 135 119.25 L 135 29.25 Z M 141.75 29.25 "/>
<path style=" stroke:none;fill-rule:nonzero;fill:rgb(90.196078%,23.137255%,27.843137%);fill-opacity:1;" d="M 114.75 128.25 L 114.75 137.25 L 105.75 128.25 L 96.75 137.25 L 96.75 119.25 L 114.75 119.25 Z M 114.75 128.25 "/>
<path style=" stroke:none;fill-rule:nonzero;fill:rgb(0.392157%,65.882353%,30.588235%);fill-opacity:1;" d="M 126 69.75 L 126 78.75 L 81 78.75 L 96.75 63 L 105.75 72 L 117 60.75 Z M 126 69.75 "/>
<path style=" stroke:none;fill-rule:nonzero;fill:rgb(28.627451%,53.72549%,95.686275%);fill-opacity:1;" d="M 126 29.25 L 126 69.75 L 117 60.75 L 105.75 72 L 96.75 63 L 81 78.75 L 81 29.25 L 86.21875 29.25 C 88.851562 37.957031 98.101562 41.851562 98.101562 50.941406 C 98.101562 53.921875 100.519531 56.339844 103.5 56.339844 C 106.480469 56.339844 108.898438 53.921875 108.898438 50.941406 C 108.898438 41.851562 118.148438 37.957031 120.78125 29.25 Z M 126 29.25 "/>
<path style=" stroke:none;fill-rule:nonzero;fill:rgb(98.431373%,98.431373%,98.431373%);fill-opacity:1;" d="M 65.25 20.25 L 9 20.25 L 9 119.25 L 65.25 119.25 C 67.050781 119.210938 68.792969 119.910156 70.066406 121.183594 C 71.339844 122.457031 72.039062 124.199219 72 126 L 72 27 C 72.039062 25.199219 71.339844 23.457031 70.066406 22.183594 C 68.792969 20.910156 67.050781 20.210938 65.25 20.25 Z M 36 54 C 39.722656 54.011719 42.738281 57.027344 42.75 60.75 C 42.75 64.476562 39.726562 67.5 36 67.5 C 32.273438 67.5 29.25 64.476562 29.25 60.75 C 29.261719 57.027344 32.277344 54.011719 36 54 Z M 63 78.75 L 63 110.25 L 18 110.25 L 18 74.25 L 63 74.25 Z M 63 78.75 "/>
<path style=" stroke:none;fill-rule:nonzero;fill:rgb(98.431373%,98.431373%,98.431373%);fill-opacity:1;" d="M 78.75 119.25 C 76.949219 119.210938 75.207031 119.910156 73.933594 121.183594 C 72.660156 122.457031 71.960938 124.199219 72 126 L 72 27 C 71.960938 25.199219 72.660156 23.457031 73.933594 22.183594 C 75.207031 20.910156 76.949219 20.210938 78.75 20.25 L 85.996094 20.25 C 85.671875 21.621094 85.503906 23.027344 85.5 24.433594 C 85.484375 26.066406 85.726562 27.691406 86.21875 29.25 L 81 29.25 L 81 78.75 L 126 78.75 L 126 29.25 L 120.78125 29.25 C 121.273438 27.691406 121.515625 26.066406 121.5 24.433594 C 121.496094 23.027344 121.328125 21.621094 121.003906 20.25 L 135 20.25 L 135 119.25 Z M 78.75 119.25 "/>
<path style=" stroke:none;fill-rule:nonzero;fill:rgb(36.078431%,41.176471%,47.45098%);fill-opacity:1;" d="M 72 126 C 72.039062 124.199219 71.339844 122.457031 70.066406 121.183594 C 68.792969 119.910156 67.050781 119.210938 65.25 119.25 L 9 119.25 L 9 29.25 L 6.75 29.25 L 6.75 123.75 L 65.007812 123.75 C 67.992188 123.496094 70.746094 125.375 71.589844 128.25 L 72 128.25 Z M 72 126 "/>
<path style=" stroke:none;fill-rule:nonzero;fill:rgb(36.078431%,41.176471%,47.45098%);fill-opacity:1;" d="M 78.75 119.25 C 76.949219 119.210938 75.207031 119.910156 73.933594 121.183594 C 72.660156 122.457031 71.960938 124.199219 72 126 L 72 128.25 L 72.410156 128.25 C 73.253906 125.375 76.007812 123.496094 78.992188 123.75 L 96.75 123.75 L 96.75 119.25 Z M 78.75 119.25 "/>
<path style=" stroke:none;fill-rule:nonzero;fill:rgb(36.078431%,41.176471%,47.45098%);fill-opacity:1;" d="M 137.25 123.75 L 137.25 29.25 L 135 29.25 L 135 119.25 L 114.75 119.25 L 114.75 123.75 Z M 137.25 123.75 "/>
<path style=" stroke:none;fill-rule:nonzero;fill:rgb(58.823529%,15.294118%,18.039216%);fill-opacity:1;" d="M 110.25 24.75 C 110.25 28.476562 107.226562 31.5 103.5 31.5 C 99.773438 31.5 96.75 28.476562 96.75 24.75 C 96.75 21.023438 99.773438 18 103.5 18 C 107.226562 18 110.25 21.023438 110.25 24.75 Z M 110.25 24.75 "/>
<path style=" stroke:none;fill-rule:nonzero;fill:rgb(90.196078%,23.137255%,27.843137%);fill-opacity:1;" d="M 85.996094 20.25 C 88.085938 12.296875 95.273438 6.75 103.5 6.75 C 111.726562 6.75 118.914062 12.296875 121.003906 20.25 C 121.328125 21.621094 121.496094 23.027344 121.5 24.433594 C 121.515625 26.066406 121.273438 27.691406 120.78125 29.25 C 118.148438 37.957031 108.898438 41.851562 108.898438 50.941406 C 108.898438 53.921875 106.480469 56.339844 103.5 56.339844 C 100.519531 56.339844 98.101562 53.921875 98.101562 50.941406 C 98.101562 41.851562 88.851562 37.957031 86.21875 29.25 C 85.726562 27.691406 85.484375 26.066406 85.5 24.433594 C 85.503906 23.027344 85.671875 21.621094 85.996094 20.25 Z M 110.25 24.75 C 110.25 21.023438 107.226562 18 103.5 18 C 99.773438 18 96.75 21.023438 96.75 24.75 C 96.75 28.476562 99.773438 31.5 103.5 31.5 C 107.226562 31.5 110.25 28.476562 110.25 24.75 Z M 110.25 24.75 "/>
<path style=" stroke:none;fill-rule:nonzero;fill:rgb(3.137255%,30.588235%,91.764706%);fill-opacity:1;" d="M 93.601562 55.441406 C 93.675781 58.222656 95.855469 60.488281 98.632812 60.675781 C 101.40625 60.867188 103.871094 58.914062 104.324219 56.167969 C 104.054688 56.214844 103.777344 56.242188 103.5 56.25 C 100.542969 56.273438 98.125 53.898438 98.101562 50.941406 C 98.101562 41.851562 88.851562 37.957031 86.21875 29.25 L 81.023438 29.25 C 81.03125 30.777344 81.265625 32.292969 81.71875 33.75 C 84.351562 42.457031 93.601562 46.351562 93.601562 55.441406 Z M 93.601562 55.441406 "/>
<path style=" stroke:none;fill-rule:nonzero;fill:rgb(70.196078%,18.039216%,21.568627%);fill-opacity:1;" d="M 103.5 15.75 C 98.53125 15.75 94.5 19.78125 94.5 24.75 C 94.5 29.71875 98.53125 33.75 103.5 33.75 C 108.46875 33.75 112.5 29.71875 112.5 24.75 C 112.5 19.78125 108.46875 15.75 103.5 15.75 Z M 103.5 31.5 C 99.773438 31.5 96.75 28.476562 96.75 24.75 C 96.75 21.023438 99.773438 18 103.5 18 C 107.226562 18 110.25 21.023438 110.25 24.75 C 110.25 28.476562 107.226562 31.5 103.5 31.5 Z M 103.5 31.5 "/>
<path style=" stroke:none;fill-rule:nonzero;fill:rgb(90.980392%,93.72549%,96.078431%);fill-opacity:1;" d="M 81 83.25 L 81 20.25 L 78.75 20.25 C 76.949219 20.210938 75.207031 20.910156 73.933594 22.183594 C 72.660156 23.457031 71.960938 25.199219 72 27 L 72 126 C 71.960938 124.199219 72.660156 122.457031 73.933594 121.183594 C 75.207031 119.910156 76.949219 119.210938 78.75 119.25 L 135 119.25 L 135 110.25 L 108 110.25 C 93.089844 110.25 81 98.160156 81 83.25 Z M 81 83.25 "/>
<path style=" stroke:none;fill-rule:nonzero;fill:rgb(28.627451%,53.72549%,95.686275%);fill-opacity:1;" d="M 63 78.75 L 63 92.25 L 56.25 85.5 Z M 63 78.75 "/>
<path style=" stroke:none;fill-rule:nonzero;fill:rgb(0.392157%,65.882353%,30.588235%);fill-opacity:1;" d="M 29.25 99 L 18 110.25 L 18 87.75 Z M 29.25 99 "/>
<path style=" stroke:none;fill-rule:nonzero;fill:rgb(28.627451%,53.72549%,95.686275%);fill-opacity:1;" d="M 63 110.25 L 31.5 110.25 L 47.25 94.5 Z M 63 110.25 "/>
<path style=" stroke:none;fill-rule:nonzero;fill:rgb(98.431373%,79.607843%,0%);fill-opacity:1;" d="M 63 74.25 L 63 78.75 L 56.25 85.5 L 63 92.25 L 63 110.25 L 47.25 94.5 L 31.5 110.25 L 18 110.25 L 29.25 99 L 18 87.75 L 18 74.25 L 36 92.25 L 54 74.25 Z M 63 74.25 "/>
<path style=" stroke:none;fill-rule:nonzero;fill:rgb(0.392157%,65.882353%,30.588235%);fill-opacity:1;" d="M 36 92.25 L 18 74.25 L 54 74.25 Z M 36 92.25 "/>
<path style=" stroke:none;fill-rule:nonzero;fill:rgb(90.980392%,93.72549%,96.078431%);fill-opacity:1;" d="M 45 110.25 L 18 110.25 L 18 20.25 L 9 20.25 L 9 119.25 L 65.25 119.25 C 67.050781 119.210938 68.792969 119.910156 70.066406 121.183594 C 71.339844 122.457031 72.039062 124.199219 72 126 L 72 110.25 Z M 45 110.25 "/>
<path style=" stroke:none;fill-rule:nonzero;fill:rgb(0.392157%,56.862745%,26.666667%);fill-opacity:1;" d="M 18.476562 88.226562 L 18 87.75 L 18 110.25 L 25.910156 102.339844 C 22.0625 98.496094 19.472656 93.574219 18.476562 88.226562 Z M 18.476562 88.226562 "/>
<path style=" stroke:none;fill-rule:nonzero;fill:rgb(3.137255%,30.588235%,91.764706%);fill-opacity:1;" d="M 31.5 110.25 L 45 110.25 C 41.171875 110.25 37.390625 109.429688 33.90625 107.84375 Z M 31.5 110.25 "/>
<path style=" stroke:none;fill-rule:nonzero;fill:rgb(98.039216%,67.058824%,10.588235%);fill-opacity:1;" d="M 18 83.25 L 18 87.75 L 18.476562 88.226562 C 18.164062 86.585938 18.003906 84.921875 18 83.25 Z M 18 83.25 "/>
<path style=" stroke:none;fill-rule:nonzero;fill:rgb(98.039216%,67.058824%,10.588235%);fill-opacity:1;" d="M 25.910156 102.339844 L 18 110.25 L 31.5 110.25 L 33.90625 107.84375 C 30.929688 106.507812 28.21875 104.644531 25.910156 102.339844 Z M 25.910156 102.339844 "/>
<path style=" stroke:none;fill-rule:nonzero;fill:rgb(51.372549%,58.039216%,69.803922%);fill-opacity:1;" d="M 24.75 28.125 L 65.25 28.125 L 65.25 30.375 L 24.75 30.375 Z M 24.75 28.125 "/>
<path style=" stroke:none;fill-rule:nonzero;fill:rgb(51.372549%,58.039216%,69.803922%);fill-opacity:1;" d="M 15.75 28.125 L 20.25 28.125 L 20.25 30.375 L 15.75 30.375 Z M 15.75 28.125 "/>
<path style=" stroke:none;fill-rule:nonzero;fill:rgb(51.372549%,58.039216%,69.803922%);fill-opacity:1;" d="M 24.75 46.125 L 65.25 46.125 L 65.25 48.375 L 24.75 48.375 Z M 24.75 46.125 "/>
<path style=" stroke:none;fill-rule:nonzero;fill:rgb(51.372549%,58.039216%,69.803922%);fill-opacity:1;" d="M 15.75 46.125 L 20.25 46.125 L 20.25 48.375 L 15.75 48.375 Z M 15.75 46.125 "/>
<path style=" stroke:none;fill-rule:nonzero;fill:rgb(51.372549%,58.039216%,69.803922%);fill-opacity:1;" d="M 15.75 37.125 L 65.25 37.125 L 65.25 39.375 L 15.75 39.375 Z M 15.75 37.125 "/>
<path style=" stroke:none;fill-rule:nonzero;fill:rgb(51.372549%,58.039216%,69.803922%);fill-opacity:1;" d="M 15.75 55.125 L 65.25 55.125 L 65.25 57.375 L 15.75 57.375 Z M 15.75 55.125 "/>
<path style=" stroke:none;fill-rule:nonzero;fill:rgb(70.196078%,18.039216%,21.568627%);fill-opacity:1;" d="M 30.984375 56.25 C 32.851562 54.175781 35.804688 53.464844 38.410156 54.460938 C 41.019531 55.457031 42.742188 57.957031 42.75 60.75 C 42.75 64.476562 39.726562 67.5 36 67.5 C 32.273438 67.5 29.25 64.476562 29.25 60.75 C 29.246094 59.085938 29.863281 57.480469 30.984375 56.25 Z M 30.984375 56.25 "/>
<path style=" stroke:none;fill-rule:nonzero;fill:rgb(90.196078%,23.137255%,27.843137%);fill-opacity:1;" d="M 40.5 60.75 C 40.5 63.234375 38.484375 65.25 36 65.25 C 33.515625 65.25 31.5 63.234375 31.5 60.75 C 31.5 58.265625 33.515625 56.25 36 56.25 C 38.484375 56.25 40.5 58.265625 40.5 60.75 Z M 40.5 60.75 "/>
<path style=" stroke:none;fill-rule:nonzero;fill:rgb(65.882353%,71.764706%,83.137255%);fill-opacity:1;" d="M 34.875 67.386719 L 34.875 83.25 L 37.125 83.25 L 37.125 67.386719 C 36.382812 67.539062 35.617188 67.539062 34.875 67.386719 Z M 34.875 67.386719 "/>
<path style=" stroke:none;fill-rule:nonzero;fill:rgb(70.196078%,18.039216%,21.568627%);fill-opacity:1;" d="M 114.75 123.75 L 114.75 119.25 L 96.75 119.25 L 96.75 137.25 L 105.75 128.25 L 105.75 123.75 Z M 114.75 123.75 "/>
<path style=" stroke:none;fill-rule:nonzero;fill:rgb(51.372549%,58.039216%,69.803922%);fill-opacity:1;" d="M 87.75 91.125 L 128.25 91.125 L 128.25 93.375 L 87.75 93.375 Z M 87.75 91.125 "/>
<path style=" stroke:none;fill-rule:nonzero;fill:rgb(51.372549%,58.039216%,69.803922%);fill-opacity:1;" d="M 78.75 91.125 L 83.25 91.125 L 83.25 93.375 L 78.75 93.375 Z M 78.75 91.125 "/>
<path style=" stroke:none;fill-rule:nonzero;fill:rgb(51.372549%,58.039216%,69.803922%);fill-opacity:1;" d="M 87.75 109.125 L 128.25 109.125 L 128.25 111.375 L 87.75 111.375 Z M 87.75 109.125 "/>
<path style=" stroke:none;fill-rule:nonzero;fill:rgb(51.372549%,58.039216%,69.803922%);fill-opacity:1;" d="M 78.75 109.125 L 83.25 109.125 L 83.25 111.375 L 78.75 111.375 Z M 78.75 109.125 "/>
<path style=" stroke:none;fill-rule:nonzero;fill:rgb(51.372549%,58.039216%,69.803922%);fill-opacity:1;" d="M 78.75 100.125 L 128.25 100.125 L 128.25 102.375 L 78.75 102.375 Z M 78.75 100.125 "/>
</g>
</svg>
