<?xml version="1.0" encoding="UTF-8"?>
<svg xmlns="http://www.w3.org/2000/svg" xmlns:xlink="http://www.w3.org/1999/xlink" width="72px" height="72px" viewBox="0 0 72 72" version="1.1">
<g id="surface1">
<path style=" stroke:none;fill-rule:nonzero;fill:rgb(51.372549%,58.039216%,69.803922%);fill-opacity:1;" d="M 48.375 64.125 L 1.125 64.125 L 1.125 14.625 L 4.5 14.625 L 4.5 59.625 L 32.625 59.625 C 33.527344 59.605469 34.394531 59.957031 35.03125 60.59375 C 35.667969 61.230469 36.019531 62.097656 36 63 C 35.980469 62.097656 36.332031 61.230469 36.96875 60.59375 C 37.605469 59.957031 38.472656 59.605469 39.375 59.625 L 48.375 59.625 Z M 48.375 64.125 "/>
<path style=" stroke:none;fill-rule:nonzero;fill:rgb(51.372549%,58.039216%,69.803922%);fill-opacity:1;" d="M 70.875 14.625 L 70.875 64.125 L 57.375 64.125 L 57.375 59.625 L 67.5 59.625 L 67.5 14.625 Z M 70.875 14.625 "/>
<path style=" stroke:none;fill-rule:nonzero;fill:rgb(90.196078%,23.137255%,27.843137%);fill-opacity:1;" d="M 57.375 64.125 L 57.375 68.625 L 52.875 64.125 L 48.375 68.625 L 48.375 59.625 L 57.375 59.625 Z M 57.375 64.125 "/>
<path style=" stroke:none;fill-rule:nonzero;fill:rgb(0.392157%,65.882353%,30.588235%);fill-opacity:1;" d="M 63 34.875 L 63 39.375 L 40.5 39.375 L 48.375 31.5 L 52.875 36 L 58.5 30.375 Z M 63 34.875 "/>
<path style=" stroke:none;fill-rule:nonzero;fill:rgb(28.627451%,53.72549%,95.686275%);fill-opacity:1;" d="M 63 14.625 L 63 34.875 L 58.5 30.375 L 52.875 36 L 48.375 31.5 L 40.5 39.375 L 40.5 14.625 L 43.109375 14.625 C 44.425781 18.980469 49.050781 20.925781 49.050781 25.46875 C 49.050781 26.960938 50.257812 28.171875 51.75 28.171875 C 53.242188 28.171875 54.449219 26.960938 54.449219 25.46875 C 54.449219 20.925781 59.074219 18.980469 60.390625 14.625 Z M 63 14.625 "/>
<path style=" stroke:none;fill-rule:nonzero;fill:rgb(98.431373%,98.431373%,98.431373%);fill-opacity:1;" d="M 32.625 10.125 L 4.5 10.125 L 4.5 59.625 L 32.625 59.625 C 33.527344 59.605469 34.394531 59.957031 35.03125 60.59375 C 35.667969 61.230469 36.019531 62.097656 36 63 L 36 13.5 C 36.019531 12.597656 35.667969 11.730469 35.03125 11.09375 C 34.394531 10.457031 33.527344 10.105469 32.625 10.125 Z M 18 27 C 19.859375 27.007812 21.367188 28.515625 21.375 30.375 C 21.375 32.238281 19.863281 33.75 18 33.75 C 16.136719 33.75 14.625 32.238281 14.625 30.375 C 14.632812 28.515625 16.140625 27.007812 18 27 Z M 31.5 39.375 L 31.5 55.125 L 9 55.125 L 9 37.125 L 31.5 37.125 Z M 31.5 39.375 "/>
<path style=" stroke:none;fill-rule:nonzero;fill:rgb(98.431373%,98.431373%,98.431373%);fill-opacity:1;" d="M 39.375 59.625 C 38.472656 59.605469 37.605469 59.957031 36.96875 60.59375 C 36.332031 61.230469 35.980469 62.097656 36 63 L 36 13.5 C 35.980469 12.597656 36.332031 11.730469 36.96875 11.09375 C 37.605469 10.457031 38.472656 10.105469 39.375 10.125 L 42.996094 10.125 C 42.835938 10.8125 42.75 11.511719 42.75 12.21875 C 42.742188 13.035156 42.863281 13.847656 43.109375 14.625 L 40.5 14.625 L 40.5 39.375 L 63 39.375 L 63 14.625 L 60.390625 14.625 C 60.636719 13.847656 60.757812 13.035156 60.75 12.21875 C 60.75 11.511719 60.664062 10.8125 60.503906 10.125 L 67.5 10.125 L 67.5 59.625 Z M 39.375 59.625 "/>
<path style=" stroke:none;fill-rule:nonzero;fill:rgb(36.078431%,41.176471%,47.45098%);fill-opacity:1;" d="M 36 63 C 36.019531 62.097656 35.667969 61.230469 35.03125 60.59375 C 34.394531 59.957031 33.527344 59.605469 32.625 59.625 L 4.5 59.625 L 4.5 14.625 L 3.375 14.625 L 3.375 61.875 L 32.503906 61.875 C 33.996094 61.746094 35.371094 62.6875 35.796875 64.125 L 36 64.125 Z M 36 63 "/>
<path style=" stroke:none;fill-rule:nonzero;fill:rgb(36.078431%,41.176471%,47.45098%);fill-opacity:1;" d="M 39.375 59.625 C 38.472656 59.605469 37.605469 59.957031 36.96875 60.59375 C 36.332031 61.230469 35.980469 62.097656 36 63 L 36 64.125 L 36.203125 64.125 C 36.628906 62.6875 38.003906 61.746094 39.496094 61.875 L 48.375 61.875 L 48.375 59.625 Z M 39.375 59.625 "/>
<path style=" stroke:none;fill-rule:nonzero;fill:rgb(36.078431%,41.176471%,47.45098%);fill-opacity:1;" d="M 68.625 61.875 L 68.625 14.625 L 67.5 14.625 L 67.5 59.625 L 57.375 59.625 L 57.375 61.875 Z M 68.625 61.875 "/>
<path style=" stroke:none;fill-rule:nonzero;fill:rgb(58.823529%,15.294118%,18.039216%);fill-opacity:1;" d="M 55.125 12.375 C 55.125 14.238281 53.613281 15.75 51.75 15.75 C 49.886719 15.75 48.375 14.238281 48.375 12.375 C 48.375 10.511719 49.886719 9 51.75 9 C 53.613281 9 55.125 10.511719 55.125 12.375 Z M 55.125 12.375 "/>
<path style=" stroke:none;fill-rule:nonzero;fill:rgb(90.196078%,23.137255%,27.843137%);fill-opacity:1;" d="M 42.996094 10.125 C 44.042969 6.148438 47.636719 3.375 51.75 3.375 C 55.863281 3.375 59.457031 6.148438 60.503906 10.125 C 60.664062 10.8125 60.75 11.511719 60.75 12.21875 C 60.757812 13.035156 60.636719 13.847656 60.390625 14.625 C 59.074219 18.980469 54.449219 20.925781 54.449219 25.46875 C 54.449219 26.960938 53.242188 28.171875 51.75 28.171875 C 50.257812 28.171875 49.050781 26.960938 49.050781 25.46875 C 49.050781 20.925781 44.425781 18.980469 43.109375 14.625 C 42.863281 13.847656 42.742188 13.035156 42.75 12.21875 C 42.75 11.511719 42.835938 10.8125 42.996094 10.125 Z M 55.125 12.375 C 55.125 10.511719 53.613281 9 51.75 9 C 49.886719 9 48.375 10.511719 48.375 12.375 C 48.375 14.238281 49.886719 15.75 51.75 15.75 C 53.613281 15.75 55.125 14.238281 55.125 12.375 Z M 55.125 12.375 "/>
<path style=" stroke:none;fill-rule:nonzero;fill:rgb(3.137255%,30.588235%,91.764706%);fill-opacity:1;" d="M 46.800781 27.71875 C 46.839844 29.109375 47.929688 30.242188 49.316406 30.339844 C 50.703125 30.433594 51.9375 29.457031 52.164062 28.085938 C 52.027344 28.109375 51.886719 28.121094 51.75 28.125 C 50.269531 28.136719 49.0625 26.949219 49.050781 25.46875 C 49.050781 20.925781 44.425781 18.980469 43.109375 14.625 L 40.511719 14.625 C 40.515625 15.386719 40.632812 16.144531 40.859375 16.875 C 42.175781 21.230469 46.800781 23.175781 46.800781 27.71875 Z M 46.800781 27.71875 "/>
<path style=" stroke:none;fill-rule:nonzero;fill:rgb(70.196078%,18.039216%,21.568627%);fill-opacity:1;" d="M 51.75 7.875 C 49.265625 7.875 47.25 9.890625 47.25 12.375 C 47.25 14.859375 49.265625 16.875 51.75 16.875 C 54.234375 16.875 56.25 14.859375 56.25 12.375 C 56.25 9.890625 54.234375 7.875 51.75 7.875 Z M 51.75 15.75 C 49.886719 15.75 48.375 14.238281 48.375 12.375 C 48.375 10.511719 49.886719 9 51.75 9 C 53.613281 9 55.125 10.511719 55.125 12.375 C 55.125 14.238281 53.613281 15.75 51.75 15.75 Z M 51.75 15.75 "/>
<path style=" stroke:none;fill-rule:nonzero;fill:rgb(90.980392%,93.72549%,96.078431%);fill-opacity:1;" d="M 40.5 41.625 L 40.5 10.125 L 39.375 10.125 C 38.472656 10.105469 37.605469 10.457031 36.96875 11.09375 C 36.332031 11.730469 35.980469 12.597656 36 13.5 L 36 63 C 35.980469 62.097656 36.332031 61.230469 36.96875 60.59375 C 37.605469 59.957031 38.472656 59.605469 39.375 59.625 L 67.5 59.625 L 67.5 55.125 L 54 55.125 C 46.542969 55.125 40.5 49.082031 40.5 41.625 Z M 40.5 41.625 "/>
<path style=" stroke:none;fill-rule:nonzero;fill:rgb(28.627451%,53.72549%,95.686275%);fill-opacity:1;" d="M 31.5 39.375 L 31.5 46.125 L 28.125 42.75 Z M 31.5 39.375 "/>
<path style=" stroke:none;fill-rule:nonzero;fill:rgb(0.392157%,65.882353%,30.588235%);fill-opacity:1;" d="M 14.625 49.5 L 9 55.125 L 9 43.875 Z M 14.625 49.5 "/>
<path style=" stroke:none;fill-rule:nonzero;fill:rgb(28.627451%,53.72549%,95.686275%);fill-opacity:1;" d="M 31.5 55.125 L 15.75 55.125 L 23.625 47.25 Z M 31.5 55.125 "/>
<path style=" stroke:none;fill-rule:nonzero;fill:rgb(98.431373%,79.607843%,0%);fill-opacity:1;" d="M 31.5 37.125 L 31.5 39.375 L 28.125 42.75 L 31.5 46.125 L 31.5 55.125 L 23.625 47.25 L 15.75 55.125 L 9 55.125 L 14.625 49.5 L 9 43.875 L 9 37.125 L 18 46.125 L 27 37.125 Z M 31.5 37.125 "/>
<path style=" stroke:none;fill-rule:nonzero;fill:rgb(0.392157%,65.882353%,30.588235%);fill-opacity:1;" d="M 18 46.125 L 9 37.125 L 27 37.125 Z M 18 46.125 "/>
<path style=" stroke:none;fill-rule:nonzero;fill:rgb(90.980392%,93.72549%,96.078431%);fill-opacity:1;" d="M 22.5 55.125 L 9 55.125 L 9 10.125 L 4.5 10.125 L 4.5 59.625 L 32.625 59.625 C 33.527344 59.605469 34.394531 59.957031 35.03125 60.59375 C 35.667969 61.230469 36.019531 62.097656 36 63 L 36 55.125 Z M 22.5 55.125 "/>
<path style=" stroke:none;fill-rule:nonzero;fill:rgb(0.392157%,56.862745%,26.666667%);fill-opacity:1;" d="M 9.238281 44.113281 L 9 43.875 L 9 55.125 L 12.953125 51.171875 C 11.03125 49.246094 9.734375 46.789062 9.238281 44.113281 Z M 9.238281 44.113281 "/>
<path style=" stroke:none;fill-rule:nonzero;fill:rgb(3.137255%,30.588235%,91.764706%);fill-opacity:1;" d="M 15.75 55.125 L 22.5 55.125 C 20.585938 55.125 18.695312 54.714844 16.953125 53.921875 Z M 15.75 55.125 "/>
<path style=" stroke:none;fill-rule:nonzero;fill:rgb(98.039216%,67.058824%,10.588235%);fill-opacity:1;" d="M 9 41.625 L 9 43.875 L 9.238281 44.113281 C 9.082031 43.292969 9.003906 42.460938 9 41.625 Z M 9 41.625 "/>
<path style=" stroke:none;fill-rule:nonzero;fill:rgb(98.039216%,67.058824%,10.588235%);fill-opacity:1;" d="M 12.953125 51.171875 L 9 55.125 L 15.75 55.125 L 16.953125 53.921875 C 15.464844 53.253906 14.109375 52.320312 12.953125 51.171875 Z M 12.953125 51.171875 "/>
<path style=" stroke:none;fill-rule:nonzero;fill:rgb(51.372549%,58.039216%,69.803922%);fill-opacity:1;" d="M 12.375 14.0625 L 32.625 14.0625 L 32.625 15.1875 L 12.375 15.1875 Z M 12.375 14.0625 "/>
<path style=" stroke:none;fill-rule:nonzero;fill:rgb(51.372549%,58.039216%,69.803922%);fill-opacity:1;" d="M 7.875 14.0625 L 10.125 14.0625 L 10.125 15.1875 L 7.875 15.1875 Z M 7.875 14.0625 "/>
<path style=" stroke:none;fill-rule:nonzero;fill:rgb(51.372549%,58.039216%,69.803922%);fill-opacity:1;" d="M 12.375 23.0625 L 32.625 23.0625 L 32.625 24.1875 L 12.375 24.1875 Z M 12.375 23.0625 "/>
<path style=" stroke:none;fill-rule:nonzero;fill:rgb(51.372549%,58.039216%,69.803922%);fill-opacity:1;" d="M 7.875 23.0625 L 10.125 23.0625 L 10.125 24.1875 L 7.875 24.1875 Z M 7.875 23.0625 "/>
<path style=" stroke:none;fill-rule:nonzero;fill:rgb(51.372549%,58.039216%,69.803922%);fill-opacity:1;" d="M 7.875 18.5625 L 32.625 18.5625 L 32.625 19.6875 L 7.875 19.6875 Z M 7.875 18.5625 "/>
<path style=" stroke:none;fill-rule:nonzero;fill:rgb(51.372549%,58.039216%,69.803922%);fill-opacity:1;" d="M 7.875 27.5625 L 32.625 27.5625 L 32.625 28.6875 L 7.875 28.6875 Z M 7.875 27.5625 "/>
<path style=" stroke:none;fill-rule:nonzero;fill:rgb(70.196078%,18.039216%,21.568627%);fill-opacity:1;" d="M 15.492188 28.125 C 16.425781 27.085938 17.902344 26.730469 19.207031 27.230469 C 20.507812 27.730469 21.371094 28.980469 21.375 30.375 C 21.375 32.238281 19.863281 33.75 18 33.75 C 16.136719 33.75 14.625 32.238281 14.625 30.375 C 14.625 29.542969 14.933594 28.742188 15.492188 28.125 Z M 15.492188 28.125 "/>
<path style=" stroke:none;fill-rule:nonzero;fill:rgb(90.196078%,23.137255%,27.843137%);fill-opacity:1;" d="M 20.25 30.375 C 20.25 31.617188 19.242188 32.625 18 32.625 C 16.757812 32.625 15.75 31.617188 15.75 30.375 C 15.75 29.132812 16.757812 28.125 18 28.125 C 19.242188 28.125 20.25 29.132812 20.25 30.375 Z M 20.25 30.375 "/>
<path style=" stroke:none;fill-rule:nonzero;fill:rgb(65.882353%,71.764706%,83.137255%);fill-opacity:1;" d="M 17.4375 33.695312 L 17.4375 41.625 L 18.5625 41.625 L 18.5625 33.695312 C 18.191406 33.769531 17.808594 33.769531 17.4375 33.695312 Z M 17.4375 33.695312 "/>
<path style=" stroke:none;fill-rule:nonzero;fill:rgb(70.196078%,18.039216%,21.568627%);fill-opacity:1;" d="M 57.375 61.875 L 57.375 59.625 L 48.375 59.625 L 48.375 68.625 L 52.875 64.125 L 52.875 61.875 Z M 57.375 61.875 "/>
<path style=" stroke:none;fill-rule:nonzero;fill:rgb(51.372549%,58.039216%,69.803922%);fill-opacity:1;" d="M 43.875 45.5625 L 64.125 45.5625 L 64.125 46.6875 L 43.875 46.6875 Z M 43.875 45.5625 "/>
<path style=" stroke:none;fill-rule:nonzero;fill:rgb(51.372549%,58.039216%,69.803922%);fill-opacity:1;" d="M 39.375 45.5625 L 41.625 45.5625 L 41.625 46.6875 L 39.375 46.6875 Z M 39.375 45.5625 "/>
<path style=" stroke:none;fill-rule:nonzero;fill:rgb(51.372549%,58.039216%,69.803922%);fill-opacity:1;" d="M 43.875 54.5625 L 64.125 54.5625 L 64.125 55.6875 L 43.875 55.6875 Z M 43.875 54.5625 "/>
<path style=" stroke:none;fill-rule:nonzero;fill:rgb(51.372549%,58.039216%,69.803922%);fill-opacity:1;" d="M 39.375 54.5625 L 41.625 54.5625 L 41.625 55.6875 L 39.375 55.6875 Z M 39.375 54.5625 "/>
<path style=" stroke:none;fill-rule:nonzero;fill:rgb(51.372549%,58.039216%,69.803922%);fill-opacity:1;" d="M 39.375 50.0625 L 64.125 50.0625 L 64.125 51.1875 L 39.375 51.1875 Z M 39.375 50.0625 "/>
</g>
</svg>
