<?xml version="1.0" encoding="UTF-8"?>
<svg xmlns="http://www.w3.org/2000/svg" xmlns:xlink="http://www.w3.org/1999/xlink" width="128px" height="128px" viewBox="0 0 128 128" version="1.1">
<g id="surface1">
<path style=" stroke:none;fill-rule:nonzero;fill:rgb(51.372549%,58.039216%,69.803922%);fill-opacity:1;" d="M 86 114 L 2 114 L 2 26 L 8 26 L 8 106 L 58 106 C 59.601562 105.964844 61.148438 106.585938 62.28125 107.71875 C 63.414062 108.851562 64.035156 110.398438 64 112 C 63.964844 110.398438 64.585938 108.851562 65.71875 107.71875 C 66.851562 106.585938 68.398438 105.964844 70 106 L 86 106 Z M 86 114 "/>
<path style=" stroke:none;fill-rule:nonzero;fill:rgb(51.372549%,58.039216%,69.803922%);fill-opacity:1;" d="M 126 26 L 126 114 L 102 114 L 102 106 L 120 106 L 120 26 Z M 126 26 "/>
<path style=" stroke:none;fill-rule:nonzero;fill:rgb(90.196078%,23.137255%,27.843137%);fill-opacity:1;" d="M 102 114 L 102 122 L 94 114 L 86 122 L 86 106 L 102 106 Z M 102 114 "/>
<path style=" stroke:none;fill-rule:nonzero;fill:rgb(0.392157%,65.882353%,30.588235%);fill-opacity:1;" d="M 112 62 L 112 70 L 72 70 L 86 56 L 94 64 L 104 54 Z M 112 62 "/>
<path style=" stroke:none;fill-rule:nonzero;fill:rgb(28.627451%,53.72549%,95.686275%);fill-opacity:1;" d="M 112 26 L 112 62 L 104 54 L 94 64 L 86 56 L 72 70 L 72 26 L 76.640625 26 C 78.980469 33.738281 87.199219 37.199219 87.199219 45.28125 C 87.199219 47.929688 89.347656 50.078125 92 50.078125 C 94.652344 50.078125 96.800781 47.929688 96.800781 45.28125 C 96.800781 37.199219 105.019531 33.738281 107.359375 26 Z M 112 26 "/>
<path style=" stroke:none;fill-rule:nonzero;fill:rgb(98.431373%,98.431373%,98.431373%);fill-opacity:1;" d="M 58 18 L 8 18 L 8 106 L 58 106 C 59.601562 105.964844 61.148438 106.585938 62.28125 107.71875 C 63.414062 108.851562 64.035156 110.398438 64 112 L 64 24 C 64.035156 22.398438 63.414062 20.851562 62.28125 19.71875 C 61.148438 18.585938 59.601562 17.964844 58 18 Z M 32 48 C 35.308594 48.011719 37.988281 50.691406 38 54 C 38 57.3125 35.3125 60 32 60 C 28.6875 60 26 57.3125 26 54 C 26.011719 50.691406 28.691406 48.011719 32 48 Z M 56 70 L 56 98 L 16 98 L 16 66 L 56 66 Z M 56 70 "/>
<path style=" stroke:none;fill-rule:nonzero;fill:rgb(98.431373%,98.431373%,98.431373%);fill-opacity:1;" d="M 70 106 C 68.398438 105.964844 66.851562 106.585938 65.71875 107.71875 C 64.585938 108.851562 63.964844 110.398438 64 112 L 64 24 C 63.964844 22.398438 64.585938 20.851562 65.71875 19.71875 C 66.851562 18.585938 68.398438 17.964844 70 18 L 76.441406 18 C 76.152344 19.21875 76.003906 20.46875 76 21.71875 C 75.984375 23.171875 76.203125 24.617188 76.640625 26 L 72 26 L 72 70 L 112 70 L 112 26 L 107.359375 26 C 107.796875 24.617188 108.015625 23.171875 108 21.71875 C 107.996094 20.46875 107.847656 19.21875 107.558594 18 L 120 18 L 120 106 Z M 70 106 "/>
<path style=" stroke:none;fill-rule:nonzero;fill:rgb(36.078431%,41.176471%,47.45098%);fill-opacity:1;" d="M 64 112 C 64.035156 110.398438 63.414062 108.851562 62.28125 107.71875 C 61.148438 106.585938 59.601562 105.964844 58 106 L 8 106 L 8 26 L 6 26 L 6 110 L 57.785156 110 C 60.4375 109.773438 62.886719 111.445312 63.636719 114 L 64 114 Z M 64 112 "/>
<path style=" stroke:none;fill-rule:nonzero;fill:rgb(36.078431%,41.176471%,47.45098%);fill-opacity:1;" d="M 70 106 C 68.398438 105.964844 66.851562 106.585938 65.71875 107.71875 C 64.585938 108.851562 63.964844 110.398438 64 112 L 64 114 L 64.363281 114 C 65.113281 111.445312 67.5625 109.773438 70.214844 110 L 86 110 L 86 106 Z M 70 106 "/>
<path style=" stroke:none;fill-rule:nonzero;fill:rgb(36.078431%,41.176471%,47.45098%);fill-opacity:1;" d="M 122 110 L 122 26 L 120 26 L 120 106 L 102 106 L 102 110 Z M 122 110 "/>
<path style=" stroke:none;fill-rule:nonzero;fill:rgb(58.823529%,15.294118%,18.039216%);fill-opacity:1;" d="M 98 22 C 98 25.3125 95.3125 28 92 28 C 88.6875 28 86 25.3125 86 22 C 86 18.6875 88.6875 16 92 16 C 95.3125 16 98 18.6875 98 22 Z M 98 22 "/>
<path style=" stroke:none;fill-rule:nonzero;fill:rgb(90.196078%,23.137255%,27.843137%);fill-opacity:1;" d="M 76.441406 18 C 78.296875 10.929688 84.6875 6 92 6 C 99.3125 6 105.703125 10.929688 107.558594 18 C 107.847656 19.21875 107.996094 20.46875 108 21.71875 C 108.015625 23.171875 107.796875 24.617188 107.359375 26 C 105.019531 33.738281 96.800781 37.199219 96.800781 45.28125 C 96.800781 47.929688 94.652344 50.078125 92 50.078125 C 89.347656 50.078125 87.199219 47.929688 87.199219 45.28125 C 87.199219 37.199219 78.980469 33.738281 76.640625 26 C 76.203125 24.617188 75.984375 23.171875 76 21.71875 C 76.003906 20.46875 76.152344 19.21875 76.441406 18 Z M 98 22 C 98 18.6875 95.3125 16 92 16 C 88.6875 16 86 18.6875 86 22 C 86 25.3125 88.6875 28 92 28 C 95.3125 28 98 25.3125 98 22 Z M 98 22 "/>
<path style=" stroke:none;fill-rule:nonzero;fill:rgb(3.137255%,30.588235%,91.764706%);fill-opacity:1;" d="M 83.199219 49.28125 C 83.269531 51.753906 85.207031 53.765625 87.671875 53.933594 C 90.140625 54.101562 92.332031 52.367188 92.734375 49.929688 C 92.492188 49.96875 92.246094 49.996094 92 50 C 89.371094 50.023438 87.222656 47.910156 87.199219 45.28125 C 87.199219 37.199219 78.980469 33.738281 76.640625 26 L 72.019531 26 C 72.027344 27.355469 72.234375 28.703125 72.640625 30 C 74.980469 37.738281 83.199219 41.199219 83.199219 49.28125 Z M 83.199219 49.28125 "/>
<path style=" stroke:none;fill-rule:nonzero;fill:rgb(70.196078%,18.039216%,21.568627%);fill-opacity:1;" d="M 92 14 C 87.582031 14 84 17.582031 84 22 C 84 26.417969 87.582031 30 92 30 C 96.417969 30 100 26.417969 100 22 C 100 17.582031 96.417969 14 92 14 Z M 92 28 C 88.6875 28 86 25.3125 86 22 C 86 18.6875 88.6875 16 92 16 C 95.3125 16 98 18.6875 98 22 C 98 25.3125 95.3125 28 92 28 Z M 92 28 "/>
<path style=" stroke:none;fill-rule:nonzero;fill:rgb(90.980392%,93.72549%,96.078431%);fill-opacity:1;" d="M 72 74 L 72 18 L 70 18 C 68.398438 17.964844 66.851562 18.585938 65.71875 19.71875 C 64.585938 20.851562 63.964844 22.398438 64 24 L 64 112 C 63.964844 110.398438 64.585938 108.851562 65.71875 107.71875 C 66.851562 106.585938 68.398438 105.964844 70 106 L 120 106 L 120 98 L 96 98 C 82.746094 98 72 87.253906 72 74 Z M 72 74 "/>
<path style=" stroke:none;fill-rule:nonzero;fill:rgb(28.627451%,53.72549%,95.686275%);fill-opacity:1;" d="M 56 70 L 56 82 L 50 76 Z M 56 70 "/>
<path style=" stroke:none;fill-rule:nonzero;fill:rgb(0.392157%,65.882353%,30.588235%);fill-opacity:1;" d="M 26 88 L 16 98 L 16 78 Z M 26 88 "/>
<path style=" stroke:none;fill-rule:nonzero;fill:rgb(28.627451%,53.72549%,95.686275%);fill-opacity:1;" d="M 56 98 L 28 98 L 42 84 Z M 56 98 "/>
<path style=" stroke:none;fill-rule:nonzero;fill:rgb(98.431373%,79.607843%,0%);fill-opacity:1;" d="M 56 66 L 56 70 L 50 76 L 56 82 L 56 98 L 42 84 L 28 98 L 16 98 L 26 88 L 16 78 L 16 66 L 32 82 L 48 66 Z M 56 66 "/>
<path style=" stroke:none;fill-rule:nonzero;fill:rgb(0.392157%,65.882353%,30.588235%);fill-opacity:1;" d="M 32 82 L 16 66 L 48 66 Z M 32 82 "/>
<path style=" stroke:none;fill-rule:nonzero;fill:rgb(90.980392%,93.72549%,96.078431%);fill-opacity:1;" d="M 40 98 L 16 98 L 16 18 L 8 18 L 8 106 L 58 106 C 59.601562 105.964844 61.148438 106.585938 62.28125 107.71875 C 63.414062 108.851562 64.035156 110.398438 64 112 L 64 98 Z M 40 98 "/>
<path style=" stroke:none;fill-rule:nonzero;fill:rgb(0.392157%,56.862745%,26.666667%);fill-opacity:1;" d="M 16.425781 78.425781 L 16 78 L 16 98 L 23.03125 90.96875 C 19.609375 87.550781 17.308594 83.175781 16.425781 78.425781 Z M 16.425781 78.425781 "/>
<path style=" stroke:none;fill-rule:nonzero;fill:rgb(3.137255%,30.588235%,91.764706%);fill-opacity:1;" d="M 28 98 L 40 98 C 36.597656 98 33.234375 97.269531 30.136719 95.863281 Z M 28 98 "/>
<path style=" stroke:none;fill-rule:nonzero;fill:rgb(98.039216%,67.058824%,10.588235%);fill-opacity:1;" d="M 16 74 L 16 78 L 16.425781 78.425781 C 16.144531 76.964844 16.003906 75.484375 16 74 Z M 16 74 "/>
<path style=" stroke:none;fill-rule:nonzero;fill:rgb(98.039216%,67.058824%,10.588235%);fill-opacity:1;" d="M 23.03125 90.96875 L 16 98 L 28 98 L 30.136719 95.863281 C 27.492188 94.675781 25.082031 93.015625 23.03125 90.96875 Z M 23.03125 90.96875 "/>
<path style=" stroke:none;fill-rule:nonzero;fill:rgb(51.372549%,58.039216%,69.803922%);fill-opacity:1;" d="M 22 25 L 58 25 L 58 27 L 22 27 Z M 22 25 "/>
<path style=" stroke:none;fill-rule:nonzero;fill:rgb(51.372549%,58.039216%,69.803922%);fill-opacity:1;" d="M 14 25 L 18 25 L 18 27 L 14 27 Z M 14 25 "/>
<path style=" stroke:none;fill-rule:nonzero;fill:rgb(51.372549%,58.039216%,69.803922%);fill-opacity:1;" d="M 22 41 L 58 41 L 58 43 L 22 43 Z M 22 41 "/>
<path style=" stroke:none;fill-rule:nonzero;fill:rgb(51.372549%,58.039216%,69.803922%);fill-opacity:1;" d="M 14 41 L 18 41 L 18 43 L 14 43 Z M 14 41 "/>
<path style=" stroke:none;fill-rule:nonzero;fill:rgb(51.372549%,58.039216%,69.803922%);fill-opacity:1;" d="M 14 33 L 58 33 L 58 35 L 14 35 Z M 14 33 "/>
<path style=" stroke:none;fill-rule:nonzero;fill:rgb(51.372549%,58.039216%,69.803922%);fill-opacity:1;" d="M 14 49 L 58 49 L 58 51 L 14 51 Z M 14 49 "/>
<path style=" stroke:none;fill-rule:nonzero;fill:rgb(70.196078%,18.039216%,21.568627%);fill-opacity:1;" d="M 27.539062 50 C 29.199219 48.15625 31.824219 47.523438 34.144531 48.410156 C 36.460938 49.296875 37.996094 51.519531 38 54 C 38 57.3125 35.3125 60 32 60 C 28.6875 60 26 57.3125 26 54 C 25.996094 52.519531 26.546875 51.09375 27.539062 50 Z M 27.539062 50 "/>
<path style=" stroke:none;fill-rule:nonzero;fill:rgb(90.196078%,23.137255%,27.843137%);fill-opacity:1;" d="M 36 54 C 36 56.210938 34.210938 58 32 58 C 29.789062 58 28 56.210938 28 54 C 28 51.789062 29.789062 50 32 50 C 34.210938 50 36 51.789062 36 54 Z M 36 54 "/>
<path style=" stroke:none;fill-rule:nonzero;fill:rgb(65.882353%,71.764706%,83.137255%);fill-opacity:1;" d="M 31 59.898438 L 31 74 L 33 74 L 33 59.898438 C 32.339844 60.035156 31.660156 60.035156 31 59.898438 Z M 31 59.898438 "/>
<path style=" stroke:none;fill-rule:nonzero;fill:rgb(70.196078%,18.039216%,21.568627%);fill-opacity:1;" d="M 102 110 L 102 106 L 86 106 L 86 122 L 94 114 L 94 110 Z M 102 110 "/>
<path style=" stroke:none;fill-rule:nonzero;fill:rgb(51.372549%,58.039216%,69.803922%);fill-opacity:1;" d="M 78 81 L 114 81 L 114 83 L 78 83 Z M 78 81 "/>
<path style=" stroke:none;fill-rule:nonzero;fill:rgb(51.372549%,58.039216%,69.803922%);fill-opacity:1;" d="M 70 81 L 74 81 L 74 83 L 70 83 Z M 70 81 "/>
<path style=" stroke:none;fill-rule:nonzero;fill:rgb(51.372549%,58.039216%,69.803922%);fill-opacity:1;" d="M 78 97 L 114 97 L 114 99 L 78 99 Z M 78 97 "/>
<path style=" stroke:none;fill-rule:nonzero;fill:rgb(51.372549%,58.039216%,69.803922%);fill-opacity:1;" d="M 70 97 L 74 97 L 74 99 L 70 99 Z M 70 97 "/>
<path style=" stroke:none;fill-rule:nonzero;fill:rgb(51.372549%,58.039216%,69.803922%);fill-opacity:1;" d="M 70 89 L 114 89 L 114 91 L 70 91 Z M 70 89 "/>
</g>
</svg>
