<?xml version="1.0" encoding="UTF-8"?>
<svg xmlns="http://www.w3.org/2000/svg" xmlns:xlink="http://www.w3.org/1999/xlink" width="384px" height="384px" viewBox="0 0 384 384" version="1.1">
<g id="surface1">
<path style=" stroke:none;fill-rule:nonzero;fill:rgb(51.372549%,58.039216%,69.803922%);fill-opacity:1;" d="M 258 342 L 6 342 L 6 78 L 24 78 L 24 318 L 174 318 C 178.804688 317.898438 183.441406 319.761719 186.839844 323.160156 C 190.238281 326.558594 192.101562 331.195312 192 336 C 191.898438 331.195312 193.761719 326.558594 197.160156 323.160156 C 200.558594 319.761719 205.195312 317.898438 210 318 L 258 318 Z M 258 342 "/>
<path style=" stroke:none;fill-rule:nonzero;fill:rgb(51.372549%,58.039216%,69.803922%);fill-opacity:1;" d="M 378 78 L 378 342 L 306 342 L 306 318 L 360 318 L 360 78 Z M 378 78 "/>
<path style=" stroke:none;fill-rule:nonzero;fill:rgb(90.196078%,23.137255%,27.843137%);fill-opacity:1;" d="M 306 342 L 306 366 L 282 342 L 258 366 L 258 318 L 306 318 Z M 306 342 "/>
<path style=" stroke:none;fill-rule:nonzero;fill:rgb(0.392157%,65.882353%,30.588235%);fill-opacity:1;" d="M 336 186 L 336 210 L 216 210 L 258 168 L 282 192 L 312 162 Z M 336 186 "/>
<path style=" stroke:none;fill-rule:nonzero;fill:rgb(28.627451%,53.72549%,95.686275%);fill-opacity:1;" d="M 336 78 L 336 186 L 312 162 L 282 192 L 258 168 L 216 210 L 216 78 L 229.921875 78 C 236.941406 101.21875 261.601562 111.601562 261.601562 135.839844 C 261.601562 143.792969 268.046875 150.238281 276 150.238281 C 283.953125 150.238281 290.398438 143.792969 290.398438 135.839844 C 290.398438 111.601562 315.058594 101.21875 322.078125 78 Z M 336 78 "/>
<path style=" stroke:none;fill-rule:nonzero;fill:rgb(98.431373%,98.431373%,98.431373%);fill-opacity:1;" d="M 174 54 L 24 54 L 24 318 L 174 318 C 178.804688 317.898438 183.441406 319.761719 186.839844 323.160156 C 190.238281 326.558594 192.101562 331.195312 192 336 L 192 72 C 192.101562 67.195312 190.238281 62.558594 186.839844 59.160156 C 183.441406 55.761719 178.804688 53.898438 174 54 Z M 96 144 C 105.925781 144.035156 113.964844 152.074219 114 162 C 114 171.941406 105.941406 180 96 180 C 86.058594 180 78 171.941406 78 162 C 78.035156 152.074219 86.074219 144.035156 96 144 Z M 168 210 L 168 294 L 48 294 L 48 198 L 168 198 Z M 168 210 "/>
<path style=" stroke:none;fill-rule:nonzero;fill:rgb(98.431373%,98.431373%,98.431373%);fill-opacity:1;" d="M 210 318 C 205.195312 317.898438 200.558594 319.761719 197.160156 323.160156 C 193.761719 326.558594 191.898438 331.195312 192 336 L 192 72 C 191.898438 67.195312 193.761719 62.558594 197.160156 59.160156 C 200.558594 55.761719 205.195312 53.898438 210 54 L 229.320312 54 C 228.453125 57.65625 228.011719 61.402344 228 65.160156 C 227.957031 69.515625 228.605469 73.847656 229.921875 78 L 216 78 L 216 210 L 336 210 L 336 78 L 322.078125 78 C 323.394531 73.847656 324.042969 69.515625 324 65.160156 C 323.988281 61.402344 323.546875 57.65625 322.679688 54 L 360 54 L 360 318 Z M 210 318 "/>
<path style=" stroke:none;fill-rule:nonzero;fill:rgb(36.078431%,41.176471%,47.45098%);fill-opacity:1;" d="M 192 336 C 192.101562 331.195312 190.238281 326.558594 186.839844 323.160156 C 183.441406 319.761719 178.804688 317.898438 174 318 L 24 318 L 24 78 L 18 78 L 18 330 L 173.359375 330 C 181.316406 329.320312 188.65625 334.335938 190.90625 342 L 192 342 Z M 192 336 "/>
<path style=" stroke:none;fill-rule:nonzero;fill:rgb(36.078431%,41.176471%,47.45098%);fill-opacity:1;" d="M 210 318 C 205.195312 317.898438 200.558594 319.761719 197.160156 323.160156 C 193.761719 326.558594 191.898438 331.195312 192 336 L 192 342 L 193.09375 342 C 195.34375 334.335938 202.683594 329.320312 210.640625 330 L 258 330 L 258 318 Z M 210 318 "/>
<path style=" stroke:none;fill-rule:nonzero;fill:rgb(36.078431%,41.176471%,47.45098%);fill-opacity:1;" d="M 366 330 L 366 78 L 360 78 L 360 318 L 306 318 L 306 330 Z M 366 330 "/>
<path style=" stroke:none;fill-rule:nonzero;fill:rgb(58.823529%,15.294118%,18.039216%);fill-opacity:1;" d="M 294 66 C 294 75.941406 285.941406 84 276 84 C 266.058594 84 258 75.941406 258 66 C 258 56.058594 266.058594 48 276 48 C 285.941406 48 294 56.058594 294 66 Z M 294 66 "/>
<path style=" stroke:none;fill-rule:nonzero;fill:rgb(90.196078%,23.137255%,27.843137%);fill-opacity:1;" d="M 229.320312 54 C 234.894531 32.789062 254.066406 18 276 18 C 297.933594 18 317.105469 32.789062 322.679688 54 C 323.546875 57.65625 323.988281 61.402344 324 65.160156 C 324.042969 69.515625 323.394531 73.847656 322.078125 78 C 315.058594 101.21875 290.398438 111.601562 290.398438 135.839844 C 290.398438 143.792969 283.953125 150.238281 276 150.238281 C 268.046875 150.238281 261.601562 143.792969 261.601562 135.839844 C 261.601562 111.601562 236.941406 101.21875 229.921875 78 C 228.605469 73.847656 227.957031 69.515625 228 65.160156 C 228.011719 61.402344 228.453125 57.65625 229.320312 54 Z M 294 66 C 294 56.058594 285.941406 48 276 48 C 266.058594 48 258 56.058594 258 66 C 258 75.941406 266.058594 84 276 84 C 285.941406 84 294 75.941406 294 66 Z M 294 66 "/>
<path style=" stroke:none;fill-rule:nonzero;fill:rgb(3.137255%,30.588235%,91.764706%);fill-opacity:1;" d="M 249.601562 147.839844 C 249.808594 155.257812 255.617188 161.300781 263.019531 161.804688 C 270.421875 162.308594 276.992188 157.105469 278.203125 149.785156 C 277.472656 149.910156 276.738281 149.984375 276 150 C 268.113281 150.066406 261.664062 143.726562 261.601562 135.839844 C 261.601562 111.601562 236.941406 101.21875 229.921875 78 L 216.058594 78 C 216.082031 82.070312 216.707031 86.113281 217.921875 90 C 224.941406 113.21875 249.601562 123.601562 249.601562 147.839844 Z M 249.601562 147.839844 "/>
<path style=" stroke:none;fill-rule:nonzero;fill:rgb(70.196078%,18.039216%,21.568627%);fill-opacity:1;" d="M 276 42 C 262.746094 42 252 52.746094 252 66 C 252 79.253906 262.746094 90 276 90 C 289.253906 90 300 79.253906 300 66 C 300 52.746094 289.253906 42 276 42 Z M 276 84 C 266.058594 84 258 75.941406 258 66 C 258 56.058594 266.058594 48 276 48 C 285.941406 48 294 56.058594 294 66 C 294 75.941406 285.941406 84 276 84 Z M 276 84 "/>
<path style=" stroke:none;fill-rule:nonzero;fill:rgb(90.980392%,93.72549%,96.078431%);fill-opacity:1;" d="M 216 222 L 216 54 L 210 54 C 205.195312 53.898438 200.558594 55.761719 197.160156 59.160156 C 193.761719 62.558594 191.898438 67.195312 192 72 L 192 336 C 191.898438 331.195312 193.761719 326.558594 197.160156 323.160156 C 200.558594 319.761719 205.195312 317.898438 210 318 L 360 318 L 360 294 L 288 294 C 248.234375 294 216 261.765625 216 222 Z M 216 222 "/>
<path style=" stroke:none;fill-rule:nonzero;fill:rgb(28.627451%,53.72549%,95.686275%);fill-opacity:1;" d="M 168 210 L 168 246 L 150 228 Z M 168 210 "/>
<path style=" stroke:none;fill-rule:nonzero;fill:rgb(0.392157%,65.882353%,30.588235%);fill-opacity:1;" d="M 78 264 L 48 294 L 48 234 Z M 78 264 "/>
<path style=" stroke:none;fill-rule:nonzero;fill:rgb(28.627451%,53.72549%,95.686275%);fill-opacity:1;" d="M 168 294 L 84 294 L 126 252 Z M 168 294 "/>
<path style=" stroke:none;fill-rule:nonzero;fill:rgb(98.431373%,79.607843%,0%);fill-opacity:1;" d="M 168 198 L 168 210 L 150 228 L 168 246 L 168 294 L 126 252 L 84 294 L 48 294 L 78 264 L 48 234 L 48 198 L 96 246 L 144 198 Z M 168 198 "/>
<path style=" stroke:none;fill-rule:nonzero;fill:rgb(0.392157%,65.882353%,30.588235%);fill-opacity:1;" d="M 96 246 L 48 198 L 144 198 Z M 96 246 "/>
<path style=" stroke:none;fill-rule:nonzero;fill:rgb(90.980392%,93.72549%,96.078431%);fill-opacity:1;" d="M 120 294 L 48 294 L 48 54 L 24 54 L 24 318 L 174 318 C 178.804688 317.898438 183.441406 319.761719 186.839844 323.160156 C 190.238281 326.558594 192.101562 331.195312 192 336 L 192 294 Z M 120 294 "/>
<path style=" stroke:none;fill-rule:nonzero;fill:rgb(0.392157%,56.862745%,26.666667%);fill-opacity:1;" d="M 49.273438 235.273438 L 48 234 L 48 294 L 69.089844 272.910156 C 58.832031 262.652344 51.925781 249.53125 49.273438 235.273438 Z M 49.273438 235.273438 "/>
<path style=" stroke:none;fill-rule:nonzero;fill:rgb(3.137255%,30.588235%,91.764706%);fill-opacity:1;" d="M 84 294 L 120 294 C 109.792969 293.996094 99.707031 291.808594 90.414062 287.585938 Z M 84 294 "/>
<path style=" stroke:none;fill-rule:nonzero;fill:rgb(98.039216%,67.058824%,10.588235%);fill-opacity:1;" d="M 48 222 L 48 234 L 49.273438 235.273438 C 48.4375 230.898438 48.011719 226.453125 48 222 Z M 48 222 "/>
<path style=" stroke:none;fill-rule:nonzero;fill:rgb(98.039216%,67.058824%,10.588235%);fill-opacity:1;" d="M 69.089844 272.910156 L 48 294 L 84 294 L 90.414062 287.585938 C 82.476562 284.023438 75.25 279.050781 69.089844 272.910156 Z M 69.089844 272.910156 "/>
<path style=" stroke:none;fill-rule:nonzero;fill:rgb(51.372549%,58.039216%,69.803922%);fill-opacity:1;" d="M 66 75 L 174 75 L 174 81 L 66 81 Z M 66 75 "/>
<path style=" stroke:none;fill-rule:nonzero;fill:rgb(51.372549%,58.039216%,69.803922%);fill-opacity:1;" d="M 42 75 L 54 75 L 54 81 L 42 81 Z M 42 75 "/>
<path style=" stroke:none;fill-rule:nonzero;fill:rgb(51.372549%,58.039216%,69.803922%);fill-opacity:1;" d="M 66 123 L 174 123 L 174 129 L 66 129 Z M 66 123 "/>
<path style=" stroke:none;fill-rule:nonzero;fill:rgb(51.372549%,58.039216%,69.803922%);fill-opacity:1;" d="M 42 123 L 54 123 L 54 129 L 42 129 Z M 42 123 "/>
<path style=" stroke:none;fill-rule:nonzero;fill:rgb(51.372549%,58.039216%,69.803922%);fill-opacity:1;" d="M 42 99 L 174 99 L 174 105 L 42 105 Z M 42 99 "/>
<path style=" stroke:none;fill-rule:nonzero;fill:rgb(51.372549%,58.039216%,69.803922%);fill-opacity:1;" d="M 42 147 L 174 147 L 174 153 L 42 153 Z M 42 147 "/>
<path style=" stroke:none;fill-rule:nonzero;fill:rgb(70.196078%,18.039216%,21.568627%);fill-opacity:1;" d="M 82.621094 150 C 87.601562 144.464844 95.476562 142.570312 102.429688 145.226562 C 109.382812 147.886719 113.984375 154.554688 114 162 C 114 171.941406 105.941406 180 96 180 C 86.058594 180 78 171.941406 78 162 C 77.988281 157.5625 79.636719 153.285156 82.621094 150 Z M 82.621094 150 "/>
<path style=" stroke:none;fill-rule:nonzero;fill:rgb(90.196078%,23.137255%,27.843137%);fill-opacity:1;" d="M 108 162 C 108 168.628906 102.628906 174 96 174 C 89.371094 174 84 168.628906 84 162 C 84 155.371094 89.371094 150 96 150 C 102.628906 150 108 155.371094 108 162 Z M 108 162 "/>
<path style=" stroke:none;fill-rule:nonzero;fill:rgb(65.882353%,71.764706%,83.137255%);fill-opacity:1;" d="M 93 179.699219 L 93 222 L 99 222 L 99 179.699219 C 97.019531 180.101562 94.980469 180.101562 93 179.699219 Z M 93 179.699219 "/>
<path style=" stroke:none;fill-rule:nonzero;fill:rgb(70.196078%,18.039216%,21.568627%);fill-opacity:1;" d="M 306 330 L 306 318 L 258 318 L 258 366 L 282 342 L 282 330 Z M 306 330 "/>
<path style=" stroke:none;fill-rule:nonzero;fill:rgb(51.372549%,58.039216%,69.803922%);fill-opacity:1;" d="M 234 243 L 342 243 L 342 249 L 234 249 Z M 234 243 "/>
<path style=" stroke:none;fill-rule:nonzero;fill:rgb(51.372549%,58.039216%,69.803922%);fill-opacity:1;" d="M 210 243 L 222 243 L 222 249 L 210 249 Z M 210 243 "/>
<path style=" stroke:none;fill-rule:nonzero;fill:rgb(51.372549%,58.039216%,69.803922%);fill-opacity:1;" d="M 234 291 L 342 291 L 342 297 L 234 297 Z M 234 291 "/>
<path style=" stroke:none;fill-rule:nonzero;fill:rgb(51.372549%,58.039216%,69.803922%);fill-opacity:1;" d="M 210 291 L 222 291 L 222 297 L 210 297 Z M 210 291 "/>
<path style=" stroke:none;fill-rule:nonzero;fill:rgb(51.372549%,58.039216%,69.803922%);fill-opacity:1;" d="M 210 267 L 342 267 L 342 273 L 210 273 Z M 210 267 "/>
</g>
</svg>
