<?xml version="1.0" encoding="UTF-8"?>
<svg xmlns="http://www.w3.org/2000/svg" xmlns:xlink="http://www.w3.org/1999/xlink" width="512px" height="512px" viewBox="0 0 512 512" version="1.1">
<g id="surface1">
<path style=" stroke:none;fill-rule:nonzero;fill:rgb(51.372549%,58.039216%,69.803922%);fill-opacity:1;" d="M 344 456 L 8 456 L 8 104 L 32 104 L 32 424 L 232 424 C 238.40625 423.863281 244.589844 426.347656 249.121094 430.878906 C 253.652344 435.410156 256.136719 441.59375 256 448 C 255.863281 441.59375 258.347656 435.410156 262.878906 430.878906 C 267.410156 426.347656 273.59375 423.863281 280 424 L 344 424 Z M 344 456 "/>
<path style=" stroke:none;fill-rule:nonzero;fill:rgb(51.372549%,58.039216%,69.803922%);fill-opacity:1;" d="M 504 104 L 504 456 L 408 456 L 408 424 L 480 424 L 480 104 Z M 504 104 "/>
<path style=" stroke:none;fill-rule:nonzero;fill:rgb(90.196078%,23.137255%,27.843137%);fill-opacity:1;" d="M 408 456 L 408 488 L 376 456 L 344 488 L 344 424 L 408 424 Z M 408 456 "/>
<path style=" stroke:none;fill-rule:nonzero;fill:rgb(0.392157%,65.882353%,30.588235%);fill-opacity:1;" d="M 448 248 L 448 280 L 288 280 L 344 224 L 376 256 L 416 216 Z M 448 248 "/>
<path style=" stroke:none;fill-rule:nonzero;fill:rgb(28.627451%,53.72549%,95.686275%);fill-opacity:1;" d="M 448 104 L 448 248 L 416 216 L 376 256 L 344 224 L 288 280 L 288 104 L 306.558594 104 C 315.921875 134.960938 348.800781 148.800781 348.800781 181.121094 C 348.800781 191.722656 357.394531 200.320312 368 200.320312 C 378.605469 200.320312 387.199219 191.722656 387.199219 181.121094 C 387.199219 148.800781 420.078125 134.960938 429.441406 104 Z M 448 104 "/>
<path style=" stroke:none;fill-rule:nonzero;fill:rgb(98.431373%,98.431373%,98.431373%);fill-opacity:1;" d="M 232 72 L 32 72 L 32 424 L 232 424 C 238.40625 423.863281 244.589844 426.347656 249.121094 430.878906 C 253.652344 435.410156 256.136719 441.59375 256 448 L 256 96 C 256.136719 89.59375 253.652344 83.410156 249.121094 78.878906 C 244.589844 74.347656 238.40625 71.863281 232 72 Z M 128 192 C 141.234375 192.046875 151.953125 202.765625 152 216 C 152 229.253906 141.253906 240 128 240 C 114.746094 240 104 229.253906 104 216 C 104.046875 202.765625 114.765625 192.046875 128 192 Z M 224 280 L 224 392 L 64 392 L 64 264 L 224 264 Z M 224 280 "/>
<path style=" stroke:none;fill-rule:nonzero;fill:rgb(98.431373%,98.431373%,98.431373%);fill-opacity:1;" d="M 280 424 C 273.59375 423.863281 267.410156 426.347656 262.878906 430.878906 C 258.347656 435.410156 255.863281 441.59375 256 448 L 256 96 C 255.863281 89.59375 258.347656 83.410156 262.878906 78.878906 C 267.410156 74.347656 273.59375 71.863281 280 72 L 305.761719 72 C 304.605469 76.875 304.015625 81.867188 304 86.878906 C 303.941406 92.6875 304.808594 98.464844 306.558594 104 L 288 104 L 288 280 L 448 280 L 448 104 L 429.441406 104 C 431.191406 98.464844 432.058594 92.6875 432 86.878906 C 431.984375 81.867188 431.394531 76.875 430.238281 72 L 480 72 L 480 424 Z M 280 424 "/>
<path style=" stroke:none;fill-rule:nonzero;fill:rgb(36.078431%,41.176471%,47.45098%);fill-opacity:1;" d="M 256 448 C 256.136719 441.59375 253.652344 435.410156 249.121094 430.878906 C 244.589844 426.347656 238.40625 423.863281 232 424 L 32 424 L 32 104 L 24 104 L 24 440 L 231.144531 440 C 241.757812 439.09375 251.539062 445.78125 254.542969 456 L 256 456 Z M 256 448 "/>
<path style=" stroke:none;fill-rule:nonzero;fill:rgb(36.078431%,41.176471%,47.45098%);fill-opacity:1;" d="M 280 424 C 273.59375 423.863281 267.410156 426.347656 262.878906 430.878906 C 258.347656 435.410156 255.863281 441.59375 256 448 L 256 456 L 257.457031 456 C 260.460938 445.78125 270.242188 439.09375 280.855469 440 L 344 440 L 344 424 Z M 280 424 "/>
<path style=" stroke:none;fill-rule:nonzero;fill:rgb(36.078431%,41.176471%,47.45098%);fill-opacity:1;" d="M 488 440 L 488 104 L 480 104 L 480 424 L 408 424 L 408 440 Z M 488 440 "/>
<path style=" stroke:none;fill-rule:nonzero;fill:rgb(58.823529%,15.294118%,18.039216%);fill-opacity:1;" d="M 392 88 C 392 101.253906 381.253906 112 368 112 C 354.746094 112 344 101.253906 344 88 C 344 74.746094 354.746094 64 368 64 C 381.253906 64 392 74.746094 392 88 Z M 392 88 "/>
<path style=" stroke:none;fill-rule:nonzero;fill:rgb(90.196078%,23.137255%,27.843137%);fill-opacity:1;" d="M 305.761719 72 C 313.191406 43.714844 338.757812 24 368 24 C 397.242188 24 422.808594 43.714844 430.238281 72 C 431.394531 76.875 431.984375 81.867188 432 86.878906 C 432.058594 92.6875 431.191406 98.464844 429.441406 104 C 420.078125 134.960938 387.199219 148.800781 387.199219 181.121094 C 387.199219 191.722656 378.605469 200.320312 368 200.320312 C 357.394531 200.320312 348.800781 191.722656 348.800781 181.121094 C 348.800781 148.800781 315.921875 134.960938 306.558594 104 C 304.808594 98.464844 303.941406 92.6875 304 86.878906 C 304.015625 81.867188 304.605469 76.875 305.761719 72 Z M 392 88 C 392 74.746094 381.253906 64 368 64 C 354.746094 64 344 74.746094 344 88 C 344 101.253906 354.746094 112 368 112 C 381.253906 112 392 101.253906 392 88 Z M 392 88 "/>
<path style=" stroke:none;fill-rule:nonzero;fill:rgb(3.137255%,30.588235%,91.764706%);fill-opacity:1;" d="M 332.800781 197.121094 C 333.078125 207.007812 340.820312 215.070312 350.691406 215.738281 C 360.558594 216.410156 369.324219 209.472656 370.9375 199.710938 C 369.964844 199.882812 368.984375 199.976562 368 200 C 357.484375 200.089844 348.886719 191.636719 348.800781 181.121094 C 348.800781 148.800781 315.921875 134.960938 306.558594 104 L 288.078125 104 C 288.109375 109.425781 288.945312 114.820312 290.558594 120 C 299.921875 150.960938 332.800781 164.800781 332.800781 197.121094 Z M 332.800781 197.121094 "/>
<path style=" stroke:none;fill-rule:nonzero;fill:rgb(70.196078%,18.039216%,21.568627%);fill-opacity:1;" d="M 368 56 C 350.328125 56 336 70.328125 336 88 C 336 105.671875 350.328125 120 368 120 C 385.671875 120 400 105.671875 400 88 C 400 70.328125 385.671875 56 368 56 Z M 368 112 C 354.746094 112 344 101.253906 344 88 C 344 74.746094 354.746094 64 368 64 C 381.253906 64 392 74.746094 392 88 C 392 101.253906 381.253906 112 368 112 Z M 368 112 "/>
<path style=" stroke:none;fill-rule:nonzero;fill:rgb(90.980392%,93.72549%,96.078431%);fill-opacity:1;" d="M 288 296 L 288 72 L 280 72 C 273.59375 71.863281 267.410156 74.347656 262.878906 78.878906 C 258.347656 83.410156 255.863281 89.59375 256 96 L 256 448 C 255.863281 441.59375 258.347656 435.410156 262.878906 430.878906 C 267.410156 426.347656 273.59375 423.863281 280 424 L 480 424 L 480 392 L 384 392 C 330.980469 392 288 349.019531 288 296 Z M 288 296 "/>
<path style=" stroke:none;fill-rule:nonzero;fill:rgb(28.627451%,53.72549%,95.686275%);fill-opacity:1;" d="M 224 280 L 224 328 L 200 304 Z M 224 280 "/>
<path style=" stroke:none;fill-rule:nonzero;fill:rgb(0.392157%,65.882353%,30.588235%);fill-opacity:1;" d="M 104 352 L 64 392 L 64 312 Z M 104 352 "/>
<path style=" stroke:none;fill-rule:nonzero;fill:rgb(28.627451%,53.72549%,95.686275%);fill-opacity:1;" d="M 224 392 L 112 392 L 168 336 Z M 224 392 "/>
<path style=" stroke:none;fill-rule:nonzero;fill:rgb(98.431373%,79.607843%,0%);fill-opacity:1;" d="M 224 264 L 224 280 L 200 304 L 224 328 L 224 392 L 168 336 L 112 392 L 64 392 L 104 352 L 64 312 L 64 264 L 128 328 L 192 264 Z M 224 264 "/>
<path style=" stroke:none;fill-rule:nonzero;fill:rgb(0.392157%,65.882353%,30.588235%);fill-opacity:1;" d="M 128 328 L 64 264 L 192 264 Z M 128 328 "/>
<path style=" stroke:none;fill-rule:nonzero;fill:rgb(90.980392%,93.72549%,96.078431%);fill-opacity:1;" d="M 160 392 L 64 392 L 64 72 L 32 72 L 32 424 L 232 424 C 238.40625 423.863281 244.589844 426.347656 249.121094 430.878906 C 253.652344 435.410156 256.136719 441.59375 256 448 L 256 392 Z M 160 392 "/>
<path style=" stroke:none;fill-rule:nonzero;fill:rgb(0.392157%,56.862745%,26.666667%);fill-opacity:1;" d="M 65.695312 313.695312 L 64 312 L 64 392 L 92.121094 363.878906 C 78.445312 350.207031 69.234375 332.710938 65.695312 313.695312 Z M 65.695312 313.695312 "/>
<path style=" stroke:none;fill-rule:nonzero;fill:rgb(3.137255%,30.588235%,91.764706%);fill-opacity:1;" d="M 112 392 L 160 392 C 146.390625 391.996094 132.941406 389.078125 120.550781 383.449219 Z M 112 392 "/>
<path style=" stroke:none;fill-rule:nonzero;fill:rgb(98.039216%,67.058824%,10.588235%);fill-opacity:1;" d="M 64 296 L 64 312 L 65.695312 313.695312 C 64.585938 307.863281 64.019531 301.9375 64 296 Z M 64 296 "/>
<path style=" stroke:none;fill-rule:nonzero;fill:rgb(98.039216%,67.058824%,10.588235%);fill-opacity:1;" d="M 92.121094 363.878906 L 64 392 L 112 392 L 120.550781 383.449219 C 109.96875 378.699219 100.335938 372.070312 92.121094 363.878906 Z M 92.121094 363.878906 "/>
<path style=" stroke:none;fill-rule:nonzero;fill:rgb(51.372549%,58.039216%,69.803922%);fill-opacity:1;" d="M 88 100 L 232 100 L 232 108 L 88 108 Z M 88 100 "/>
<path style=" stroke:none;fill-rule:nonzero;fill:rgb(51.372549%,58.039216%,69.803922%);fill-opacity:1;" d="M 56 100 L 72 100 L 72 108 L 56 108 Z M 56 100 "/>
<path style=" stroke:none;fill-rule:nonzero;fill:rgb(51.372549%,58.039216%,69.803922%);fill-opacity:1;" d="M 88 164 L 232 164 L 232 172 L 88 172 Z M 88 164 "/>
<path style=" stroke:none;fill-rule:nonzero;fill:rgb(51.372549%,58.039216%,69.803922%);fill-opacity:1;" d="M 56 164 L 72 164 L 72 172 L 56 172 Z M 56 164 "/>
<path style=" stroke:none;fill-rule:nonzero;fill:rgb(51.372549%,58.039216%,69.803922%);fill-opacity:1;" d="M 56 132 L 232 132 L 232 140 L 56 140 Z M 56 132 "/>
<path style=" stroke:none;fill-rule:nonzero;fill:rgb(51.372549%,58.039216%,69.803922%);fill-opacity:1;" d="M 56 196 L 232 196 L 232 204 L 56 204 Z M 56 196 "/>
<path style=" stroke:none;fill-rule:nonzero;fill:rgb(70.196078%,18.039216%,21.568627%);fill-opacity:1;" d="M 110.160156 200 C 116.800781 192.621094 127.300781 190.089844 136.574219 193.636719 C 145.84375 197.183594 151.976562 206.074219 152 216 C 152 229.253906 141.253906 240 128 240 C 114.746094 240 104 229.253906 104 216 C 103.988281 210.085938 106.183594 204.378906 110.160156 200 Z M 110.160156 200 "/>
<path style=" stroke:none;fill-rule:nonzero;fill:rgb(90.196078%,23.137255%,27.843137%);fill-opacity:1;" d="M 144 216 C 144 224.835938 136.835938 232 128 232 C 119.164062 232 112 224.835938 112 216 C 112 207.164062 119.164062 200 128 200 C 136.835938 200 144 207.164062 144 216 Z M 144 216 "/>
<path style=" stroke:none;fill-rule:nonzero;fill:rgb(65.882353%,71.764706%,83.137255%);fill-opacity:1;" d="M 124 239.601562 L 124 296 L 132 296 L 132 239.601562 C 129.359375 240.132812 126.640625 240.132812 124 239.601562 Z M 124 239.601562 "/>
<path style=" stroke:none;fill-rule:nonzero;fill:rgb(70.196078%,18.039216%,21.568627%);fill-opacity:1;" d="M 408 440 L 408 424 L 344 424 L 344 488 L 376 456 L 376 440 Z M 408 440 "/>
<path style=" stroke:none;fill-rule:nonzero;fill:rgb(51.372549%,58.039216%,69.803922%);fill-opacity:1;" d="M 312 324 L 456 324 L 456 332 L 312 332 Z M 312 324 "/>
<path style=" stroke:none;fill-rule:nonzero;fill:rgb(51.372549%,58.039216%,69.803922%);fill-opacity:1;" d="M 280 324 L 296 324 L 296 332 L 280 332 Z M 280 324 "/>
<path style=" stroke:none;fill-rule:nonzero;fill:rgb(51.372549%,58.039216%,69.803922%);fill-opacity:1;" d="M 312 388 L 456 388 L 456 396 L 312 396 Z M 312 388 "/>
<path style=" stroke:none;fill-rule:nonzero;fill:rgb(51.372549%,58.039216%,69.803922%);fill-opacity:1;" d="M 280 388 L 296 388 L 296 396 L 280 396 Z M 280 388 "/>
<path style=" stroke:none;fill-rule:nonzero;fill:rgb(51.372549%,58.039216%,69.803922%);fill-opacity:1;" d="M 280 356 L 456 356 L 456 364 L 280 364 Z M 280 356 "/>
</g>
</svg>
