<?xml version="1.0" encoding="UTF-8"?>
<svg xmlns="http://www.w3.org/2000/svg" xmlns:xlink="http://www.w3.org/1999/xlink" width="192px" height="192px" viewBox="0 0 192 192" version="1.1">
<g id="surface1">
<path style=" stroke:none;fill-rule:nonzero;fill:rgb(51.372549%,58.039216%,69.803922%);fill-opacity:1;" d="M 129 171 L 3 171 L 3 39 L 12 39 L 12 159 L 87 159 C 89.402344 158.949219 91.722656 159.878906 93.421875 161.578125 C 95.121094 163.277344 96.050781 165.597656 96 168 C 95.949219 165.597656 96.878906 163.277344 98.578125 161.578125 C 100.277344 159.878906 102.597656 158.949219 105 159 L 129 159 Z M 129 171 "/>
<path style=" stroke:none;fill-rule:nonzero;fill:rgb(51.372549%,58.039216%,69.803922%);fill-opacity:1;" d="M 189 39 L 189 171 L 153 171 L 153 159 L 180 159 L 180 39 Z M 189 39 "/>
<path style=" stroke:none;fill-rule:nonzero;fill:rgb(90.196078%,23.137255%,27.843137%);fill-opacity:1;" d="M 153 171 L 153 183 L 141 171 L 129 183 L 129 159 L 153 159 Z M 153 171 "/>
<path style=" stroke:none;fill-rule:nonzero;fill:rgb(0.392157%,65.882353%,30.588235%);fill-opacity:1;" d="M 168 93 L 168 105 L 108 105 L 129 84 L 141 96 L 156 81 Z M 168 93 "/>
<path style=" stroke:none;fill-rule:nonzero;fill:rgb(28.627451%,53.72549%,95.686275%);fill-opacity:1;" d="M 168 39 L 168 93 L 156 81 L 141 96 L 129 84 L 108 105 L 108 39 L 114.960938 39 C 118.46875 50.609375 130.800781 55.800781 130.800781 67.921875 C 130.800781 71.894531 134.023438 75.121094 138 75.121094 C 141.976562 75.121094 145.199219 71.894531 145.199219 67.921875 C 145.199219 55.800781 157.53125 50.609375 161.039062 39 Z M 168 39 "/>
<path style=" stroke:none;fill-rule:nonzero;fill:rgb(98.431373%,98.431373%,98.431373%);fill-opacity:1;" d="M 87 27 L 12 27 L 12 159 L 87 159 C 89.402344 158.949219 91.722656 159.878906 93.421875 161.578125 C 95.121094 163.277344 96.050781 165.597656 96 168 L 96 36 C 96.050781 33.597656 95.121094 31.277344 93.421875 29.578125 C 91.722656 27.878906 89.402344 26.949219 87 27 Z M 48 72 C 52.964844 72.019531 56.980469 76.035156 57 81 C 57 85.96875 52.96875 90 48 90 C 43.03125 90 39 85.96875 39 81 C 39.019531 76.035156 43.035156 72.019531 48 72 Z M 84 105 L 84 147 L 24 147 L 24 99 L 84 99 Z M 84 105 "/>
<path style=" stroke:none;fill-rule:nonzero;fill:rgb(98.431373%,98.431373%,98.431373%);fill-opacity:1;" d="M 105 159 C 102.597656 158.949219 100.277344 159.878906 98.578125 161.578125 C 96.878906 163.277344 95.949219 165.597656 96 168 L 96 36 C 95.949219 33.597656 96.878906 31.277344 98.578125 29.578125 C 100.277344 27.878906 102.597656 26.949219 105 27 L 114.660156 27 C 114.226562 28.828125 114.003906 30.699219 114 32.578125 C 113.980469 34.757812 114.304688 36.925781 114.960938 39 L 108 39 L 108 105 L 168 105 L 168 39 L 161.039062 39 C 161.695312 36.925781 162.019531 34.757812 162 32.578125 C 161.996094 30.699219 161.773438 28.828125 161.339844 27 L 180 27 L 180 159 Z M 105 159 "/>
<path style=" stroke:none;fill-rule:nonzero;fill:rgb(36.078431%,41.176471%,47.45098%);fill-opacity:1;" d="M 96 168 C 96.050781 165.597656 95.121094 163.277344 93.421875 161.578125 C 91.722656 159.878906 89.402344 158.949219 87 159 L 12 159 L 12 39 L 9 39 L 9 165 L 86.679688 165 C 90.660156 164.660156 94.328125 167.167969 95.453125 171 L 96 171 Z M 96 168 "/>
<path style=" stroke:none;fill-rule:nonzero;fill:rgb(36.078431%,41.176471%,47.45098%);fill-opacity:1;" d="M 105 159 C 102.597656 158.949219 100.277344 159.878906 98.578125 161.578125 C 96.878906 163.277344 95.949219 165.597656 96 168 L 96 171 L 96.546875 171 C 97.671875 167.167969 101.339844 164.660156 105.320312 165 L 129 165 L 129 159 Z M 105 159 "/>
<path style=" stroke:none;fill-rule:nonzero;fill:rgb(36.078431%,41.176471%,47.45098%);fill-opacity:1;" d="M 183 165 L 183 39 L 180 39 L 180 159 L 153 159 L 153 165 Z M 183 165 "/>
<path style=" stroke:none;fill-rule:nonzero;fill:rgb(58.823529%,15.294118%,18.039216%);fill-opacity:1;" d="M 147 33 C 147 37.96875 142.96875 42 138 42 C 133.03125 42 129 37.96875 129 33 C 129 28.03125 133.03125 24 138 24 C 142.96875 24 147 28.03125 147 33 Z M 147 33 "/>
<path style=" stroke:none;fill-rule:nonzero;fill:rgb(90.196078%,23.137255%,27.843137%);fill-opacity:1;" d="M 114.660156 27 C 117.445312 16.394531 127.035156 9 138 9 C 148.964844 9 158.554688 16.394531 161.339844 27 C 161.773438 28.828125 161.996094 30.699219 162 32.578125 C 162.019531 34.757812 161.695312 36.925781 161.039062 39 C 157.53125 50.609375 145.199219 55.800781 145.199219 67.921875 C 145.199219 71.894531 141.976562 75.121094 138 75.121094 C 134.023438 75.121094 130.800781 71.894531 130.800781 67.921875 C 130.800781 55.800781 118.46875 50.609375 114.960938 39 C 114.304688 36.925781 113.980469 34.757812 114 32.578125 C 114.003906 30.699219 114.226562 28.828125 114.660156 27 Z M 147 33 C 147 28.03125 142.96875 24 138 24 C 133.03125 24 129 28.03125 129 33 C 129 37.96875 133.03125 42 138 42 C 142.96875 42 147 37.96875 147 33 Z M 147 33 "/>
<path style=" stroke:none;fill-rule:nonzero;fill:rgb(3.137255%,30.588235%,91.764706%);fill-opacity:1;" d="M 124.800781 73.921875 C 124.902344 77.628906 127.808594 80.652344 131.507812 80.902344 C 135.210938 81.152344 138.496094 78.550781 139.101562 74.890625 C 138.738281 74.957031 138.371094 74.992188 138 75 C 134.054688 75.035156 130.832031 71.863281 130.800781 67.921875 C 130.800781 55.800781 118.46875 50.609375 114.960938 39 L 108.03125 39 C 108.039062 41.035156 108.355469 43.058594 108.960938 45 C 112.46875 56.609375 124.800781 61.800781 124.800781 73.921875 Z M 124.800781 73.921875 "/>
<path style=" stroke:none;fill-rule:nonzero;fill:rgb(70.196078%,18.039216%,21.568627%);fill-opacity:1;" d="M 138 21 C 131.371094 21 126 26.371094 126 33 C 126 39.628906 131.371094 45 138 45 C 144.628906 45 150 39.628906 150 33 C 150 26.371094 144.628906 21 138 21 Z M 138 42 C 133.03125 42 129 37.96875 129 33 C 129 28.03125 133.03125 24 138 24 C 142.96875 24 147 28.03125 147 33 C 147 37.96875 142.96875 42 138 42 Z M 138 42 "/>
<path style=" stroke:none;fill-rule:nonzero;fill:rgb(90.980392%,93.72549%,96.078431%);fill-opacity:1;" d="M 108 111 L 108 27 L 105 27 C 102.597656 26.949219 100.277344 27.878906 98.578125 29.578125 C 96.878906 31.277344 95.949219 33.597656 96 36 L 96 168 C 95.949219 165.597656 96.878906 163.277344 98.578125 161.578125 C 100.277344 159.878906 102.597656 158.949219 105 159 L 180 159 L 180 147 L 144 147 C 124.117188 147 108 130.882812 108 111 Z M 108 111 "/>
<path style=" stroke:none;fill-rule:nonzero;fill:rgb(28.627451%,53.72549%,95.686275%);fill-opacity:1;" d="M 84 105 L 84 123 L 75 114 Z M 84 105 "/>
<path style=" stroke:none;fill-rule:nonzero;fill:rgb(0.392157%,65.882353%,30.588235%);fill-opacity:1;" d="M 39 132 L 24 147 L 24 117 Z M 39 132 "/>
<path style=" stroke:none;fill-rule:nonzero;fill:rgb(28.627451%,53.72549%,95.686275%);fill-opacity:1;" d="M 84 147 L 42 147 L 63 126 Z M 84 147 "/>
<path style=" stroke:none;fill-rule:nonzero;fill:rgb(98.431373%,79.607843%,0%);fill-opacity:1;" d="M 84 99 L 84 105 L 75 114 L 84 123 L 84 147 L 63 126 L 42 147 L 24 147 L 39 132 L 24 117 L 24 99 L 48 123 L 72 99 Z M 84 99 "/>
<path style=" stroke:none;fill-rule:nonzero;fill:rgb(0.392157%,65.882353%,30.588235%);fill-opacity:1;" d="M 48 123 L 24 99 L 72 99 Z M 48 123 "/>
<path style=" stroke:none;fill-rule:nonzero;fill:rgb(90.980392%,93.72549%,96.078431%);fill-opacity:1;" d="M 60 147 L 24 147 L 24 27 L 12 27 L 12 159 L 87 159 C 89.402344 158.949219 91.722656 159.878906 93.421875 161.578125 C 95.121094 163.277344 96.050781 165.597656 96 168 L 96 147 Z M 60 147 "/>
<path style=" stroke:none;fill-rule:nonzero;fill:rgb(0.392157%,56.862745%,26.666667%);fill-opacity:1;" d="M 24.636719 117.636719 L 24 117 L 24 147 L 34.546875 136.453125 C 29.417969 131.328125 25.960938 124.765625 24.636719 117.636719 Z M 24.636719 117.636719 "/>
<path style=" stroke:none;fill-rule:nonzero;fill:rgb(3.137255%,30.588235%,91.764706%);fill-opacity:1;" d="M 42 147 L 60 147 C 54.898438 147 49.851562 145.90625 45.207031 143.792969 Z M 42 147 "/>
<path style=" stroke:none;fill-rule:nonzero;fill:rgb(98.039216%,67.058824%,10.588235%);fill-opacity:1;" d="M 24 111 L 24 117 L 24.636719 117.636719 C 24.21875 115.449219 24.007812 113.226562 24 111 Z M 24 111 "/>
<path style=" stroke:none;fill-rule:nonzero;fill:rgb(98.039216%,67.058824%,10.588235%);fill-opacity:1;" d="M 34.546875 136.453125 L 24 147 L 42 147 L 45.207031 143.792969 C 41.238281 142.011719 37.625 139.527344 34.546875 136.453125 Z M 34.546875 136.453125 "/>
<path style=" stroke:none;fill-rule:nonzero;fill:rgb(51.372549%,58.039216%,69.803922%);fill-opacity:1;" d="M 33 37.5 L 87 37.5 L 87 40.5 L 33 40.5 Z M 33 37.5 "/>
<path style=" stroke:none;fill-rule:nonzero;fill:rgb(51.372549%,58.039216%,69.803922%);fill-opacity:1;" d="M 21 37.5 L 27 37.5 L 27 40.5 L 21 40.5 Z M 21 37.5 "/>
<path style=" stroke:none;fill-rule:nonzero;fill:rgb(51.372549%,58.039216%,69.803922%);fill-opacity:1;" d="M 33 61.5 L 87 61.5 L 87 64.5 L 33 64.5 Z M 33 61.5 "/>
<path style=" stroke:none;fill-rule:nonzero;fill:rgb(51.372549%,58.039216%,69.803922%);fill-opacity:1;" d="M 21 61.5 L 27 61.5 L 27 64.5 L 21 64.5 Z M 21 61.5 "/>
<path style=" stroke:none;fill-rule:nonzero;fill:rgb(51.372549%,58.039216%,69.803922%);fill-opacity:1;" d="M 21 49.5 L 87 49.5 L 87 52.5 L 21 52.5 Z M 21 49.5 "/>
<path style=" stroke:none;fill-rule:nonzero;fill:rgb(51.372549%,58.039216%,69.803922%);fill-opacity:1;" d="M 21 73.5 L 87 73.5 L 87 76.5 L 21 76.5 Z M 21 73.5 "/>
<path style=" stroke:none;fill-rule:nonzero;fill:rgb(70.196078%,18.039216%,21.568627%);fill-opacity:1;" d="M 41.308594 75 C 43.800781 72.234375 47.738281 71.285156 51.214844 72.613281 C 54.691406 73.945312 56.992188 77.277344 57 81 C 57 85.96875 52.96875 90 48 90 C 43.03125 90 39 85.96875 39 81 C 38.996094 78.78125 39.820312 76.640625 41.308594 75 Z M 41.308594 75 "/>
<path style=" stroke:none;fill-rule:nonzero;fill:rgb(90.196078%,23.137255%,27.843137%);fill-opacity:1;" d="M 54 81 C 54 84.3125 51.3125 87 48 87 C 44.6875 87 42 84.3125 42 81 C 42 77.6875 44.6875 75 48 75 C 51.3125 75 54 77.6875 54 81 Z M 54 81 "/>
<path style=" stroke:none;fill-rule:nonzero;fill:rgb(65.882353%,71.764706%,83.137255%);fill-opacity:1;" d="M 46.5 89.851562 L 46.5 111 L 49.5 111 L 49.5 89.851562 C 48.511719 90.050781 47.488281 90.050781 46.5 89.851562 Z M 46.5 89.851562 "/>
<path style=" stroke:none;fill-rule:nonzero;fill:rgb(70.196078%,18.039216%,21.568627%);fill-opacity:1;" d="M 153 165 L 153 159 L 129 159 L 129 183 L 141 171 L 141 165 Z M 153 165 "/>
<path style=" stroke:none;fill-rule:nonzero;fill:rgb(51.372549%,58.039216%,69.803922%);fill-opacity:1;" d="M 117 121.5 L 171 121.5 L 171 124.5 L 117 124.5 Z M 117 121.5 "/>
<path style=" stroke:none;fill-rule:nonzero;fill:rgb(51.372549%,58.039216%,69.803922%);fill-opacity:1;" d="M 105 121.5 L 111 121.5 L 111 124.5 L 105 124.5 Z M 105 121.5 "/>
<path style=" stroke:none;fill-rule:nonzero;fill:rgb(51.372549%,58.039216%,69.803922%);fill-opacity:1;" d="M 117 145.5 L 171 145.5 L 171 148.5 L 117 148.5 Z M 117 145.5 "/>
<path style=" stroke:none;fill-rule:nonzero;fill:rgb(51.372549%,58.039216%,69.803922%);fill-opacity:1;" d="M 105 145.5 L 111 145.5 L 111 148.5 L 105 148.5 Z M 105 145.5 "/>
<path style=" stroke:none;fill-rule:nonzero;fill:rgb(51.372549%,58.039216%,69.803922%);fill-opacity:1;" d="M 105 133.5 L 171 133.5 L 171 136.5 L 105 136.5 Z M 105 133.5 "/>
</g>
</svg>
